/* XPM */
static char *_8a6ba04fe50486cfda70a1a23730ebevYikh3oIhPFJAZsu[] = {
/* columns rows colors chars-per-pixel */
"128 128 2 1 ",
"  c None",
". c black",
/* pixels */
"                                                                    .                                                           ",
"                                                                  ...                                                           ",
"                                                                 .....                                                          ",
"                                                                ......                                                          ",
"                                                              .........                       .                                 ",
"        ..                                                   ..........                       .....                             ",
"        ...                                                .............                      .........                         ",
"        ....                                              ..............                       ............                     ",
"        .....                                           .................                      ................                 ",
"       .......                                         ..................                      ....................             ",
"       ........                                       ....................                     ........................         ",
"       .........                                    ......................                     ............................     ",
"       ..........                                  ........................                     ............................... ",
"      ............                               ..........................                     ............................... ",
"      .............                             ............................                    ............................... ",
"      ..............                           .............................                    ..............................  ",
"      ...............                        ................................                    ............................   ",
"      ................                      .................................                    ...........................    ",
"     ..................                   ....................................                   ..........................     ",
"     ...................                 .....................................                   .........................      ",
"     ....................               .......................................                  ........................       ",
"     .....................             ........................................                   .......................       ",
"    .......................                .....................................                  ......................        ",
"    ........................                  ..................................                  .....................         ",
"    .........................                     ...............................                 ....................          ",
"    ..........................                        ...........................                  ..................           ",
"    ........................                              ........................                 .................            ",
"   ........................                                  .....................                 ................             ",
"   ......................                                        ..................                ................             ",
"   ....................                                              ..............                ...............              ",
"   ..................                                                   ............                .............               ",
"  ..................                                                        ........                ............                ",
"  ................                                                              .....               ...........                 ",
"  ..............                                                                   ..               ..........                  ",
"  ............                             .                                                         ........                   ",
"  ...........                              ....                                                      ........                   ",
" ..........                                 .....                                                    .......                    ",
" ........                                   ........                                                 ......                     ",
" ......                                      ..........                                              .....                      ",
" .....                                       .............                                            ...                       ",
"....                                          ..............                                          ..                        ",
"..                                            .................                                       .                         ",
"                                               ...................                                                              ",
"                             .                 ......................                                                          .",
"                            ...                 .......................                                                      .. ",
"                           ....                 ..........................                                                  ... ",
"                           .....                 ............................                                              .... ",
"                          .......                ...............................                                         ...... ",
"                         ........                 ................................                                      ......  ",
"                        ..........                ...................................                                  .......  ",
"                       ...........                 .....................................                             .........  ",
"                      .............                ......................................                           ..........  ",
"                     ..............                 ....................................                          ...........   ",
"                     ...............                ...................................                          ............   ",
"                    .................                .................................                          .............   ",
"                   ..................                ................................                         ..............    ",
"                  ....................                ..............................                         ...............    ",
"                 .....................                .............................                         ................    ",
"                .......................                ...........................                        ..................    ",
"               ........................                ..........................                        ..................     ",
"               .........................                ........................                       ....................     ",
"              ...........................               .......................                       .....................     ",
"             ............................                .....................                       ......................     ",
"            ..............................               ....................                      .......................      ",
"           ...............................                ..................                      ........................      ",
"          .................................               .................                      .........................      ",
"         ..................................                ...............                     ..........................       ",
"         ...................................               ..............                     ...........................       ",
"        .....................................               ............                    .............................       ",
"       ......................................               ...........                    ..............................       ",
"      ........................................               .........                    ..............................        ",
"     .........................................               ........                   ................................        ",
"     .........................................                ......                   .................................        ",
"                                                              .....                   ..................................        ",
"                                                               ...                  ...................................         ",
"                                                               ..                  ....................................         ",
"                                                                                  .....................................         ",
"                                                                                   ...................................          ",
"                                                                                      ................................          ",
"                                                                                        ..............................          ",
"                                                                                           ...........................          ",
"                      .................................                                       .......................           ",
"                      .................................                                         .....................           ",
"                       ...............................                                             ..................           ",
"                       ...............................                                                ...............           ",
"                        .............................                                                   ............            ",
"                        ............................                                                       .........            ",
"                         ...........................                                                          ......            ",
"                          .........................                                                             ...             ",
"                          .........................                                                                             ",
"                           .......................                                                                              ",
"                           .......................                                                                              ",
"                            .....................                                                                               ",
"                            ....................                                                                                ",
"        .                    ...................        ..                                                                      ",
"        ..                    .................         ......                                                                  ",
"        ...                   .................         ..........                                                              ",
"        ...                    ...............          ..............                                                          ",
"       .....                   ...............           .................                    ..................................",
"       ......                   .............            .....................                 .................................",
"       .......                  ............             .........................              ............................... ",
"       .......                   ...........             .............................           .............................. ",
"      .........                   .........               ...............................         ............................. ",
"      ..........                  .........               ..............................          ............................  ",
"      ...........                  .......                .............................            ...........................  ",
"      ...........                  .......                ............................              ..........................  ",
"     .............                  .....                  ..........................                .........................  ",
"     ..............                 ....                   .........................                  .......................   ",
"     ...............                 ...                   ........................                    ......................   ",
"     ...............                  .                    .......................                      .....................   ",
"    .................                                       .....................                       ....................    ",
"    ..................                                      ....................                         ...................    ",
"    ...................                                     ...................                           ..................    ",
"    ...................                                     ..................                             .................    ",
"   .....................                                     ................                               ...............     ",
"   ......................                                    ...............                                 ..............     ",
"   .......................                                   ..............                                   .............     ",
"   .......................                                   .............                                    ............      ",
"  .........................                                   ...........                                      ...........      ",
"  ..........................                                  ..........                                        ..........      ",
"  ...........................                                 .........                                          .........      ",
"  ...........................                                 ........                                            .......       ",
" .............................                                 ......                                              ......       ",
" ..............................                                .....                                                .....       ",
" ...............................                               ....                                                 ....        ",
" ...............................                               ...                                                   ...        ",
".................................                               .                                                     ..        ",
"..................................                              .                                                               "
};
