/* XPM */
static char *result[] = {
/* columns rows colors chars-per-pixel */
"128 128 55 1 ",
"  c #0D0D0D",
". c #1E0B0C",
"X c #1B0F10",
"o c #151515",
"O c #1B1314",
"+ c #1C1C1C",
"@ c #240203",
"# c #2B0101",
"$ c #220709",
"% c #230B0B",
"& c #2D0909",
"* c #340100",
"= c #3A0100",
"- c #220F10",
"; c #221616",
": c #211C1D",
"> c #232323",
", c #292626",
"< c #2C2C2C",
"1 c #342E2E",
"2 c #353333",
"3 c #3B3535",
"4 c #3D3A3A",
"5 c #440101",
"6 c #4B0101",
"7 c #520200",
"8 c #423C3C",
"9 c #454242",
"0 c #484242",
"q c #4C4C4C",
"w c #4F4F50",
"e c #4F5050",
"r c #545454",
"t c #595656",
"y c #575857",
"u c #5A5857",
"i c #5B5758",
"p c #5B5B5B",
"a c #615E5E",
"s c #646464",
"d c #6C6C6C",
"f c #757575",
"g c #7B7B7B",
"h c #807F7F",
"j c #7F807F",
"k c #7F7F80",
"l c #807F80",
"z c #7F8080",
"x c #858585",
"c c #8E8E8E",
"v c #939393",
"b c #9C9C9C",
"n c #A0A0A0",
"m c gray69",
"M c #C8C8C8",
/* pixels */
"oo+>><<2222<2<<<<<2<<<22222<<<<<<2<<<<<>>++++++>+>>>>+>>>>>>+>>>><2<222222<22222222<2222<2<<<<<<<<<<>>>>>+>+>>><<<2<222222<>>++o",
"o+>,229944494444949444999qq9944944444944222><<<<<<<<<<<<<<<<<<<<<44944q99qqqq99qq99q9q9q94444242442224<<<<<<<<2424444444q422<>+o",
"+><2499qqqqqeqqq9qq9qqqqyeyeeeeeqqqqeeqqq444<<22<22222242222<2222eeeqqeeeeyeyeeerrrrreyerreeqqq9qq9q9qq942222499qqeqqqqqqq942<>+",
">,244qeyyyryreeeeyeereeypsssyyeeryyyyyyyyeqe424444944944944244944eyyyyyyypssssssssssssssssspyyrreeeeeeeerqq9q9eeeyyyyyyyyeq44<<>",
"><24qrpsspppppappppspppppsdsppppppspssdssyrr44244qqqqqqqqq9qqqqqqqyskysspykzksksfffdffdkkdzkddsspypypppsppprwyyppspsssssspeq42<>",
"><99epdddddddddddddsdddddddsdddddddddddddpprqqqqqeeeeeeqereeqeere9ekkkzzkkkzkkzzzzkzzzzzzzzzzzkzkkdkddddddddppssddkkdkkzkdpeq42>",
"<49epddfgffkkfkfzzzzzzkzzzzkzzzzzkffffddddseqeeeeepypyyyppppyyspyeyzszzzzzzzzzzzccvccccczvzzzvvzzzzzkzzkkffffdddkzzzzzzzzksye92<",
"<4qyddzzzczxxzxzzzzzzzzzzzzzzzzzzzzkkfkdkdyrerypppssssssssszzbzkpyezzzzzzzznznzzbbnnnnnnnnmnnnnnnzzzzzzzczzkkkffdzzvzbvzzzksye9<",
"29qysdzzzzzzczzcxxxxxxxxzzzzvvzzkkkdkdfkkpyryppppypsssssszzmnnnnksypzzzczznznznzcvbnnnnnnnnnnnnnnnnnvzzzczzcfkffdkzzznzzzzkpeq4<",
"<4qypdzzzzzvzcczxxxxxzcxzzzvzzvzkkdkfkkdyrrryppppksssskzzmnnnnnzccsykczzznznznznvccvnnnnnnnnnnnnnnnnnzvzzczzdfffkzzzbznzzzksyq9<",
"<4qypdzzzvzvzzzzxcczxxzxzzzzzzzzkdkkfkdsrrrrpppppysszznnnnnnnnmzcczpykzzzznzznnzcccvcvnnnnnnnnnnnnnnnbbzzzzdysdkdkkdzzzznzksyq4<",
"<2qepszzzzzzczccxxxxxxcxzvvzzzkzdkddkdsrrrrppppsskzznnnnnnnnnbzbcccpypzzzzzzzzznvccvcccvznnnnnnmnnnnnvvvczsyrrpsdddkkzkdzzdsyq9<",
"<49epdzzvzzzzvczxxxxxxxxzczzzkffkkdkksrrrryppppdkznnnnnnnnmznzbzvcczpydkzzzvzzzzvzvvzvzzbbzbbbznnnmbvzvzzsrryrrryydkkkkkkkkpr92<",
"<4qepdzzvzvzzzzcxxxxxxxxzzczzzffdkksyeyrryppppdzmznnnnnmnzznznzbccczzyrkzvzzzbbzzzzzzzzkzzbzzznzzzzzzbvzsrrrryryyyeeskskdsyyeq2<",
"<4qesdzzzvzzcczzxxxxczzcczzzfffkkddyeryryppppkbnmmnmnmznzznznnznczzzzsrrzzzzzzzzzczzzzkdzzzzzzkkzzzzzzzdrrrrpppyyeyyysdzkppyqq4<",
"<49epdzzzzzvzzczxzcxxxxzzcffkfffkpeeyryyppppznnnzmnzzznznzznzzzzzczczkrypzzbzzbzzzzkkzkkzzzzzkkszzzkzzdyrrypppppyyyeyeepssyeq42<",
">29epdzzzzzzzzzzxzxxxxxxzgffggfsyyeyeyyppesznnnnnbvcvcvvnzzbzzzzczxxxdrrrrkzzzzzzzzkkkdkzzzzzzkkdkdkkprrypppppppppyrrrrrreew942<",
"<24qypdzzzzzzzzzxcxxxxxzfffgfdyreyyyyyyypknnnnnnvccccccvzbzzzznzczxxxprrrrepzzzzzzzzkkdkzzzzzzkkkdkkyryryppppppppppprrrrreq942<>",
">24qesszzzzzzzzzxxxxxxgfffffdrrreyyypppyknnnnnnnvccvccvzzbbzznnzzzczdrrrprrrszzzbzzzzzkzzzzzzzzzdkkerrrypppppssppppppprrrq942<<+",
"+><qesszzzzzzzzzxzcxzffggfgsrrrryypppppkznnnmnzzcvccvcvczzzzzzzzczzkyrryppryyykzzzbzzzzzzzzzzzzzkdrrrrppppppssssssppppppyw942<>+",
"+><2qeszzdkddzkzzxzgfgfffgsrrryrypppppzznnnnbzzbcvccbzzzzzzzzznzkkfrryrppppyrrypkzzzvvzzzzzkkdkzprrryppppppsssskpyyyyerypeq42<>+",
"+><244edkkdzzdszfgfffffgfsyyrryypppppznnnnnbzbbzccvczzvzzzzvzzzzxkryrrypppppyryypdzzzzzvzdzkkkdseyryppppppssdzzzzzzdyyyryeq42<>+",
"+><24qqypddzzkdzffffffffsyrryyppppppsznnnnbnbzbbccczzzzzzfzzzzzzxkrrrrpppppppyyryrrskzzckkkzspyyrryppppysdskzzzzbzvzzsrrreq44<<+",
"+<<449eyyysdskzdfgfggfgsryrrppppysskzmnnnbzzzbbzvczfzzzzzkzzzzzzkpryrrppppppppyyrrrewykkksyyyeyyrpppppppkbzbnmmnnbvvzvpyyeqq4<<+",
">><4qqqeeyyskdzzkddkkzserrrppppassszzmmmbbbzzbbzczffzzzzzdzzzzksfyrrrppppsspppppyrrreeryyyyreeyypppppskznnnnnnmnnbbbvnzyreq44<<>",
"+><24qeeeeeeepszdkdkdseerwyyyypappszmzzzzzzzzzzzffffzzzzzzsddskzswwreryyyppspyyyyrrweeeeeeeeeeeyyyrpszzzmzzmmznzbbbnvzzseqq442<+",
"+><224qqeq9qqeespsssrqqqqwweqrrreyyzzzzzzzzzzzzdsssddfffsssssssswqq9eeeqrryyeeeewwwwqqqqqqqqqqeeeerdkkzzzzzzzzzzzzzzzzksq922<<<+",
"+><2442q4q9q444qpyyq94999999qqqqqqskzzzzdddddzsypppssssppppyyyyy94994q9qqqqqqqqqq999q99q499qqq4qqeddsddfdskkkkddkkkzzzkd4422<<++",
"++><2449444442244q424424444999q999skddsppppppyeeqqeyyyeeeeeeeqqq2424444949q499q949944444444499q4eppppppspppsppspypssddss9<<<>+++",
"o++><<<22222222<<<2<<<222244244229ypyyeeyeeeeq999999999999494q42<<<2222242242222224224422224222qeeeeeeeeeeeeeeeewweyyyyy9<>>>+oo",
"oo++<<22<>><<<<>>>>>><<<<<<<<2<<<9qqq9949999422222222224222222<<<><<<<<<<<<<<<<<<<<<<<<<<<<<24qq99994994q44999499999qqqq4>+++ooo",
"  +>><2422<>>>>>>>>>>>+>>>>><>>>>2242222222<><<<<<<<<<><<<<<<<+++>+>>>>>>>>><<<><>>>>>>>>><222<<2222222222222<222<2224222+oooo  ",
"+>>>13331311<<,,&11,,1,1,11,,111133318111381111<22<<2<22qeee9qqqqqqqeeeq<<<<<2<21211<111134333384222224218113883334433383<1<,,>,",
"22221333333331118888188181181880811118181818333122222222ezzzzzzzzzzzzzzy2224222238983893480038804q424484181838803880834838800388",
"11223133331333138888881881818808811311818131331142222222ezzzzzzzzzzzzzzy242224224888338888083388q9423484818188083800338088808838",
"32241313333331138888818118338800881381181833333322222422ezfzdkzzkzzzzzzp22222222490338888000848094423493181818808808833848000838",
"83331133333333188881181881118808311181113333331222224222ezzzzzzdkkkkzzzp22242424489438888900883808333483118188083808833888000888",
"83133113333333388118881181811800888381183333333322242222ezdzdzzzkkkkzzzy22222222398833880008833808833403111880803808338880808833",
"03331113333333338811181818111888881118113333333242422222yzzzzzkzkkkkzzzp22222222488833880000888000333893181818883800833888008838",
"93333133133333388188818181118880838111113333333322222242szzzzzdzskkkzzzd24222242800333888800813808833803111180883880333888800833",
"88818118338813188188881818118800838333132333833342222449ttttyyppeypppsyyq2222442880333888800833800833803131888088880181888800833",
"881811113388833881,8888881818808883333113338833344424942333222999444994222249942888833338808338808833003311388881800818838000333",
"88818,1833888388181888,,18111800883333133333883342244942333112999444994222449942890333388888333808333803331880818888811883888333",
"881818113338831881888888111188088383332133338834924249443322249999449q4224249924898833338808333808838088131388081888883338808333",
"88881818181888188188888181118800888333332334883394249944442224qqq444494442449944899333838888338800338888831888888880813388888333",
"88888181818881331818881811688080888333333332884224449944242<28994q499944444q9944499433383888333808833888818188811808383838808333",
"888,181818388133818888818188880088833333334444444244994422222899q9444q4442499424999433388888333800838883133800888880311883888333",
"88888181818888331888881811,8880808883333334449444eddfddddds92,>+++><9sdddddddkr4998433813808333808833808388380818808833381888333",
"888,81813333833333880333181888000808333324344944znbbnnbbg4>+++++++++++1dnbnbbbnc4992244224883338088888818888888818888,8811888818",
"08881818333383333380883381818800808833334234444rnbnbbbz9+>+++>+++++++o+o2xbbnbbbyq4222221498333800888888888888818888111811888181",
"80888181333383333338883318818808008313332424992dbbbbbf<>+++++++++++++++oo+snnbbbd9922222138833380088888888008881888811,811888818",
"08881818388808333380033381181800008833334244494dbnbnp+>+>+>;;$@@.. oOo+++oo9bbnbd992<24233883338808881881808088118881,8111888181",
"88188181338383331888088781818000008833334224992dbbba>>+>:;%#*=**###@@$Oo+++o9nbbd99233321383383800008888888888888188811811188888",
"88811818333883338888838818188880088333332444942dnbf+>+>+%*555555=***@@@%ooooopbnd44433311388388808801888188888881188818111888188",
"88181881333881331888888881818800808133332424944dbc,>>>+X5676766665***#@@$O+ooozbd44442313388388888888888888088181181181811888818",
"88818181388833338188881818181880008333332449444dn9>>:>&=67777766655=**#@@$o+oo<nd44223311388838888881888888088811888188111118888",
"88881811818833311818888181188888008318181818444dk>>>>%5677777777666===*@@@.oooodd44224333318188818881881188888111183111888188888",
"88818181188133388188881818818888088388818181442d9++>;=67777777776665==**@@@Xo+o,s222224433388888811881188188888,1873313381811888",
"8818181118183331,888881818188808808111181818444s>+>+&=777777777766655*=*@#@$+ooor222434333333808181181818888881,1113138381181818",
"888181888181318888,8818181818808888381818181242q>>>+#5677777777766665==*#@@@Oooo424424433333188881888818880808181113331318811888",
"88818181181818838,888818188888888033331818333442+>>-*5677777777766665===*#@@.ooo>22481833181888081881818188888111118818888188888",
"881818188181811888,8818181888888808333818133244<+++.=5677777777766665==**@@@.ooo+22413883318188888188181818881811111133831811888",
"8811818111881838,188881818888808883338181111444>>++@=5677777777666655===*@@@@oooX11188833381880881818118188888811111331833181888",
"88811818881113118818888181888888888131818888422++>>@*=66777777766665===**@@@@ooo$18881883333880888888811818881111118318883818888",
"83333333883331,88,,8811881888888883333334992222++++@*=56666666666655===**@@@@oooo2442484224388008888333381888,,8,534333833333888",
"83333338883123511888888111888888883333334944222>+>+@#*5566666666666====*#@@@@oooo42444944233800803888333181818888843338883333800",
"333333380831318,188,881881888881338333334942222>+>+%#*=55666666665=====*#@@@$oooo44244923333880888303333818188,,3333338033333380",
"38333388083311,1818,888118880081883333349994242<+++%@*==5565656655====*#@@@@.ooo<44424943333388008883333181818883433333833333888",
"8833333800338,1,181888188188888838333333999222<9++++@@*====5555=======*#@@@@.ooo844433033333233808808333818118183383338833333333",
"33333388083111188,11188118188881333333339994222p++++$@#*======*=====**#@@@@.ooood42448933333333900083333181881813333338083333333",
"833133800033111,3181811818888818333333349994222d2+++O@@#*===========*#@@@@@.ooo>z42448943333333808003333818181183333338833333333",
"3838333808811118335881818818818133388334999422<sf+o++%@@@#*=*====**#@@@@@@.oooofk44448843333333800088333181818813333338033333333",
"3888338800881118433331133831888838838818999842<db1++++$@@@##*****##@@@@@@$Oooo:Mz44449948181818808008133333318888181888033181818",
"83388388088881183333311388888888883388389908422dbk++o+o$@@@@@@@@@@@@@@@@.XoooovMz42449921818181800008333333381881818880083338181",
"33888388808811188333313388888888808888189999442dbbao+o+O.@@@@@@@@@@@@@@.XoooosMMz24449948181818880808333333388888181880833338118",
"38888888888881888333311388388888008388389999442dnbn9++o++X$@@@@@@@@@@$Xoooo 9MMMz44299941818188800008333333318881818180833331813",
"83888888008818888118311388818808883888389999444dbnnb8o+o+ooOX.. @@$.ooooooo4MMMMk42488818181818800088833331818888181188881818188",
"38883188800888808111811388833800088388389999444dbbbbbp++o++ooooooooooooooosMMMMMk444888818,8188800008833338113881818888888181818",
"38888188888818888111811888333800883888389999444ynbbnbng,oo+ooo+o+ooooooo>vMMMMMMa48888888,88818880808833181888888181888881811818",
"838888888888188881133118883188008888883844994448cbbnbbbbd<ooo+oooooooo>jMMMMMMMm43388888888,188800080833818118181818888818181818",
"3888818888888188883333388833188888388888188883489ydkssddddy4<++ooo+<9dzzzzzzzzs4424444q2318118888888888813333388888,330033311338",
"818881818888888883333838883388008838881818888849q4242444qqq2249q98494444244449q444442qq23311118888888811833333888,88388083331118",
"8888818188888888083333888833380088888881888844444q4244q4444244499844442444444q42442229928181188808888818183318888,18338033311118",
"888888181888188883333888883388088138881818889248qq442424qqq2444q9849244242424444442424941811118800888181313333888881338883331118",
"388088818888818808333888083338003188888133809434q44442442q4442999429444222422q44483344943183113088888188118133885483338881813118",
"83808111888818888333338888333808888888183388843849422444q49442499444222222444444383344943313313000888811131833884483338888183113",
"188888188888888888333888088338803188881113889438q94444444q92244q9444242222249942384324443333113888888118818138833383333881818118",
"8188111118888888883338800083888081888811138084384222222eppppppspaiypyyyy92422<42384244443338113808888181111838833383333888181111",
"81888311888888880833888000838800833883131388883822222422skkkkkkkgggggggs2224222228833338333311380888118,133333333388333818181181",
"18883111118888888333880008833800833803113388083342222242ekkkkkkkglgggggy22224222288333333333313800888118113333333388333381818,,8",
"81883118888888880838888080883808333803113338083422222422yzkkkdkkgggggggu22242222388333333331313800888,8,133333333388333318188,81",
"18888113188888888333888800838008333883133338084322422222pzkkkkkkjghggggy222224221488333333331138088888181333333131388333818188,8",
"81883133888888888833848000888809333303333339808322222222yzzzzzzkhggggggy2422222213898338333331340933,8,823333333313888333333,,88",
"18888333888888889438888008838008831883333348083322424222pzzzzzzkgggggggy2222422221898334333333388933,84513331333111888834333888,",
"18883381188888889438088808338008383884333338994324222222yzzzzzzzlggggggr22222222114984333333333408331341333333333118084333333485",
";,,,11181118188831111,<113,,1111,,,,1,<1,112111<<<2<2<2<9yeeyeeerrrrrrr9<2<22<<<,,,333343333333448322223322133331,,,,<11,1,,,,>>",
" X+><<2222222<<2<<<++++++>>+++>+++++>+>>>>><>>>>><<<<<<><<<<<<<<<<<<<2<<<<<<<>++>+><22424242242222<22<222222222<2>>++>>+>+++ooo ",
" +><2499994999944222<><><>><<><><><<<<<<<<<<2<2<><42222242222222222244442222<<><>29qqqqqqqqq9999899999444444499994<>>><<<>>++oo ",
"+,<24qepyeeeeeeq99994<<<<2<<<<<<22222222224444222244q4q9944994q49949qqqqq942<<<2wypyypppeewwwwwwewqqqqeqqqqqqqeeeeq<<22<2<<<>+oo",
"><49qrpddssppsyeeeeee442444444944444999999994999424qqeeeeeeeeeqeeeeeeyyyqq24444psddsdsspspppspsppyyyryyyyyrryyyppppq4424422<>>+o",
">24qesdgzkffddppyyypyq9999qqqqq999qqqqqqqqeqqqqqqq94eyyyppypppypyypyyppyq449wdkkkkkkdddsdsddsdddssssssssssssssssddddy9499442<<>>",
"<4qqysfzzczzzfsssssspe9qqqqeeeeeeyyrerryyeyyyeyeeeqqqessspssssspssksdpyq9qqpzzzczzkkkkkkkkkkkkkddfdfdffdfddffdffkzzzfpqqeq922<><",
"29qrsdkcbvvczffdkddddpyeeyyyppppspppspsppzsspppspspeeeedkddkkdkdskyyreeeepzzbvvbbczzzczzvzzzxczkzzzzzzzzkkzzkkzkzzzzzzyeee9492<2",
"29eysfzcvvvvzffkdzzfdpyyyppppsssdgxccvvvzzzzzzpppsspyyyepssddddsyrrrrryysbnmnnnbvcvcvvvvcvzvcccxxxzczzczccvcxzxxzvbvzzfryrq99442",
"29qysfzvvbvzffffdkkdkpyreppppszzccvbbnnnnnnnnnbsyqeeyyeeyyyyrryrrryrrrrybnnnnbvvccccccccccvcckxxxxxxxccccccccxxxzmznzzzyreq99242",
"2qqysfzzvzvzkfffkdkdspryypsskzzzvvnnnnnnnnnnnnnvzksyeyyyyeyerrrrrrrrryeknnnnbvccccvccvcvccccczkcxxxccccvcvcvvxxxzzzzzzzserq44294",
"<qqydfzbvvzzffffkdksdpyeyppznzzmnnnnnnnnnnnnnnnvzkzzdpyeyryyryryrryypyesbnbbccccvccccccccvvckxxxxxxcccccccccvxxxzznzzzzdyrq942q<",
"29qyszzzczfkffkfdkkskpyyyszzzznnnnnnnnvvvccvbvvczskkdkkyrryerrryypppppryvvvccccvccvcvccvcvxxxxxxxxcccvcvvcvccxxxzzzzzzzsyrq442q2",
"2qqydkzbzzfkffffkdddsyeekzznmnnnnnnbcxzgfffkcccczzzzzzkdsyrrppppppppspyrdccvcvcvccvvcvvccckkzzczxxcvccccccccxxxxzzzzzzzpeee444q2",
"24qysdzzzzfffffkdkddkeyykznznnnnnnvccxxggfffzccczzzzzzdkkprrrppppssssppyrscccccccvcvzvvccczccczzxcccvcccccccxxxznzzmzzzpyeq444q2",
"29qysdzzkfkfffffzdkdkeyykznnnnnnbcccxxxzfgfggccczzzzkkdzkkerrypppssssspprrsccvvcvcvzzcccczczzczvcccccvccvcczxxxcznmzzzyepeqq44q<",
"44qyskzkffffkfffdddddyeyzzznnmmzccccxxxzfffffzcczzzzkdkdkdserrpppsssssppprrdccvvzzzzvvcczczzczzccccvccccccxcxxcvnznzzpyypyee42q2",
"24qydddzffdzkdkzdfddsrrrkvnnnnvzbzzzzzzzzfkfgffkzbzzkkksskkyyepppypsskrpppeyzzzzznzzmzznzzzzzvvcbzznzbznnznznznzzznzkqeppeqq2222",
"<4qysdddkfzddkddddfdsryrknnnnvvvvzzvzvzzzkfffffgzzzzzkkkkkkpyypppkssssppppppykzzzzzzznnzzzzbcccvzvbznznzznzzznznnzzzryepseqq42<<",
"<9qyppdkdzzkdkddddddyyyyznnnbvvvzzzvzzvvfffffgffzzzzzzkkkskeyepppssssssspppyyyzzzzzznnznzzzzbvccbvzbzbznnzmznznzzkeerrpppreq42<>",
"<4qeypszddddddskdfdsrrrpdnnbzvvzvvzzvzzzzkkfffgfkkzzzzzskkkyyypppsssssssspppyypkzzzzzzzzzzbzzzvvbznznznzznzzmzzzzpyyrppppyeq42<+",
"+24qqysdddddksdddfdyrryppfvzzvvcbznzzbzzzzzzkffgkkkzzzkkkkseyyppsssssksssspppyyypkzzzzzzbzzvzzvvvvzbzbzbnznznznzzyrryppppye942<>",
"+>29eysddfdfdddddsyerypppszzzvcvznzbzzzzzczczfffkkzzkkkkssyeyppppssspyssssspppyeyypkzzzzzzzzzvzbzbzvnznzznznzzzkeyrypppysyeq92>>",
"+><4eysddfddddspskdyyppppyszzczvbznznzzzzczzzfffzzzzkkkkkreyppppssssssssssssppppyeyykskzvkkzzzzzzbbvznznznnzzzpyyrrppppssyeq42<>",
"><<22qeyyppyyszzzzzzfpppppyfczzzzbznzzzzczzczkfkvzzzkkeeqrryppppsssssssssssssppppyeeyeypkkzzvzvzzzvznznznznzkyeyryppppsskpeq42<>",
"><224qqeqydkzzzzzzzzzzsyppyrdzzzzzzzzzzzzzzzkzdkzzzkpeyyeeypppppsssssssskypdkkyyppppyeeeyeepdzzzvzzzzzzkkspeyyeeyypyysssyeeq42<>",
">24qysdzkkzkdkzzzzzkkkzsrreqepkzzzzzkzzzkkpkssskdkeeqqqeqqeeeyyypppryprepkkkkkkkpeeeyeeqeeeqeeeepsppkppwqeeqqqeeyrreypppyyeq92<<",
"><49eypkksddkzzzzzzzkskppqqq9q9wsdskssspyyppppspeq9q9q9qqqqqeqeeeeeeeepkkkkkkkdkzkdpeeqqeqeq4qq4qq9q9qq9q9qqqqqqqqqeeeryspyq94<>",
"+<249eeyssskdddkkzkskddpse49444444qeqqeeeqqq994444442444q44qqqq4qqqqespkpsyspssyssdsspe94444q4q444494944492q494q9qqqeypppye94<<>",
"+><24qeypsssssssysssssspeeq4222222222222<22222222222224444449444444erryyppsspsppeyyeyeeee4244244444224424442444444qqryyreq94<<>>",
"+><24qeeeeeeeyyeeeeeeeeyqq9922<<<<<<<<<<<<<<<<<<<<<<<22<<2222442222qqqeeryeeeyeyeqeeeeeeqqqq44<2<2<<2<<2<<222222224qeerreq42<<>+",
"++><<44qqqqqq4944944q99qq44422>>>>>>>>>>>>>>>>><<>><>><<<<<<<<<<<<449q9qq9q99qq9qqqq44q2q4<2422<<<<<<<<<<<<<<<<<22244q9qq42<>>++",
"o++><<<<22<2<<<<<2<<2<22222<<2<<>>>++>>+++>>>++++>+>>>>>>>>>>>>>><<2<2<22222222222<222<<<<<<<<<<<>>+>>>>>+>>>>>><<<2<2222<<>>+oo"
};
