/* XPM */
static char *_12285d691984c77a5cdcb47538ee2ca0xsgu0fsoOjuuYgL[] = {
/* columns rows colors chars-per-pixel */
"32 32 11 1 ",
"  c #2D0003",
". c #441300",
"X c #7E3D0E",
"o c #A0560B",
"O c #AB6112",
"+ c #C46F14",
"@ c #C47614",
"# c #D37C18",
"$ c #E38A1D",
"% c #E39834",
"& c #E3A64B",
/* pixels */
"oOO+OOoOOO+OOOoOOOO+OOOOooo+++oo",
"oO+##+oO+++++OOoO++#$#++Ooo+##+o",
"O+$$$+Oo++#$#++o+#$%%%%#+o+#$$+o",
"+#%%&$+o+#$$$$#Oo#$&&&&$+o+$&&#+",
"+%&&&%+o+#%&%%$+o$&&&&&%#o++&%$+",
"+%&&&&+oO   #&%$o#$&  &&$+o#$&$+",
"o$$&%&#O     #%$o+$    &$+o+$&$+",
"o$$%$%$   ... &&o+$  .. $#o#$%$#",
"o#$$$$$  .....&$oO  .... #o#$$$#",
"o$$$%$  ......$$oO  ..... o+$$%#",
"o#$$$$  ......%$Oo .......o+$$$#",
"o#$$$$ .......$$+o ....... o#$$#",
"o#$$$$ .......$$+o+........ #$$$",
"o+$$$$ ...... $$#o# ....... #$$#",
"O+$$$$& .... %$$#o+& ..... &$$$$",
"O+$$$$%& .. #$$$$o+$& ... &o#$$#",
"++$$$$$$+#%&$%$$$X+$$&&%#$+X$$$$",
"O+$$$$$$#o#$$$$$#o+$$$$$$$+o#$$#",
"++$$$$# #o+ +$$#+ #$$++ +$o #$$#",
"O+#$$+   +   ++    ++    +   $$#",
"O+$$+   .   .     .     .   .$$#",
"o+#$   ................... ..+$#",
"o+#$  ....................... ##",
"o++$ .........................$#",
"o++$# ......... @X .....%X .. #+",
"oO+#$#... %&...$OX#  ...+X#  $#+",
"oO++#+ . +++ . +Oo+## . Oo+###++",
"ooO+++O oO+++ +OX+++++ OX++++++O",
"Xoo+O+OXoO+O+OooXO+O++OoXoO+O+Oo",
"XooOOOoXooOOooooXoO+OOooXooo+ooo",
"XoooOooooooooooXXoooOoooXXoooooX",
"XXooooXXXoooooXXXXoooooXXXXoooXX"
};
