/* XPM */
static char *_165b93f11c54966f069ea586c941671PcoslTrBEM5qxitj[] = {
/* columns rows colors chars-per-pixel */
"64 64 161 2 ",
"   c #081C24",
".  c #001D32",
"X  c #182F2B",
"o  c #002234",
"O  c #002D35",
"+  c #0C2933",
"@  c #00253E",
"#  c #002B3A",
"$  c #0D283A",
"%  c #1A2933",
"&  c #053537",
"*  c #00333B",
"=  c #3A2B36",
"-  c #075532",
";  c #1C583B",
":  c #20413A",
">  c #46703A",
",  c #002C43",
"<  c #002845",
"1  c #1F2F48",
"2  c #003343",
"3  c #003C44",
"4  c #00334A",
"5  c #003B4C",
"6  c #0C384F",
"7  c #163143",
"8  c #11324B",
"9  c #19394D",
"0  c #0F3455",
"q  c #143B55",
"w  c #2A3E46",
"e  c #27364D",
"r  c #173B64",
"t  c #37376B",
"y  c #5F3B4B",
"u  c #7F3641",
"i  c #004146",
"p  c #094A49",
"a  c #17474A",
"s  c #114056",
"d  c #1D4455",
"f  c #16475B",
"g  c #3C404F",
"h  c #2A5F46",
"j  c #204B5F",
"k  c #2B4859",
"l  c #3A4E58",
"z  c #30535F",
"x  c #157740",
"c  c #336F5B",
"v  c #1A4F6C",
"b  c #264D69",
"n  c #32486C",
"m  c #29596B",
"M  c #3C5A67",
"N  c #285D76",
"B  c #375E74",
"V  c #327479",
"C  c #4C5158",
"Z  c #665F5F",
"A  c #497552",
"S  c #526668",
"D  c #466E72",
"F  c #486D7C",
"G  c #516F77",
"H  c #A32839",
"J  c #9E384D",
"K  c #873E7C",
"L  c #91494E",
"P  c #B0504E",
"I  c #A65960",
"U  c #AD746F",
"Y  c #D0624B",
"T  c #298F2F",
"R  c #21BC68",
"E  c #2BAB70",
"W  c #47894F",
"Q  c #5C9F56",
"!  c #618E5C",
"~  c #518A71",
"^  c #66866B",
"/  c #D18E64",
"(  c #4F3083",
")  c #205084",
"_  c #2B5D8D",
"`  c #1A6C95",
"'  c #336781",
"]  c #346E85",
"[  c #3D7687",
"{  c #3D758F",
"}  c #236198",
"|  c #297590",
" . c #2A7D9C",
".. c #38739B",
"X. c #2B68A5",
"o. c #2F7AAA",
"O. c #2A73B2",
"+. c #426A8A",
"@. c #4B788B",
"#. c #5B6C92",
"$. c #427C92",
"%. c #547D91",
"&. c #736584",
"*. c #607985",
"=. c #6071B7",
"-. c #329D96",
";. c #319998",
":. c #31A289",
">. c #3984A3",
",. c #3488A4",
"<. c #378BAB",
"1. c #3282B4",
"2. c #3D86B3",
"3. c #418C91",
"4. c #468398",
"5. c #5C8898",
"6. c #6C959E",
"7. c #4C8AA1",
"8. c #4993AC",
"9. c #5691AA",
"0. c #468ABB",
"q. c #539EB4",
"w. c #599BBB",
"e. c #7197AA",
"r. c #5DA5BA",
"t. c #66A8BD",
"y. c #7DA7BA",
"u. c #60B8BB",
"i. c #55D3A7",
"p. c #3F96C5",
"a. c #3FABEB",
"s. c #4B97C3",
"d. c #579AC2",
"f. c #6792C0",
"g. c #59A6CA",
"h. c #51AACB",
"j. c #61A5C3",
"k. c #66ADC4",
"l. c #64B1CB",
"z. c #73B4CB",
"x. c #6DAED7",
"c. c #6DB2D0",
"v. c #66BDD5",
"b. c #6DB9D2",
"n. c #79BCDC",
"m. c #70BCE4",
"M. c #7EC0D6",
"N. c #77C6E0",
"B. c #96A09A",
"V. c #C4AB94",
"C. c #86C8D9",
"Z. c #90D0DE",
"A. c #A1CBD8",
"S. c #84C9E2",
"D. c #91D4E3",
"F. c #9CD6E0",
"G. c #A4DDEA",
"H. c #AAE4EE",
"J. c #B0E6EE",
"K. c #B8E6F0",
"L. c #C5EEF4",
/* pixels */
"4 4 4 4 3 5 i 5 i i i i 3 3 * * * 2 # # # * # # o O o o o o . . . . o o # O O O O O O O o O o o O O O O O * * & * O * # 2 2 2 . ",
"4 . . o o o o # # # # # # o o o o o o o o o o o . . . . . . . . . . . . . . . o . . . . . . . . . . .   . . . . . o . . . . 4 . ",
"4 . c.l.b.z.z.b.z.b.M.M.M.C.S.C.S.S.S.C.N.C.N.v.v.l.h.h.s.p.p.<.p.<.<.<.1.<.<.<.<.<.<.,.<.<.<.<.<. . .<.,.1. .,.<.,.1.,.1.,.2 o ",
"2 . c.l.z.b.u.b.b.M.b.M.C.S.D.S.D.S.S.M.n.v.l.u.h.q.h.8.;.p.;.<.<.<.p.;.1.;.1.,.1.<.<.1.1.1.1.<.<.1.<.o.,.,.,.<.1. .1. . .1.4 o ",
"# . z.z.z.z.k.z.z.z.M.M.M.C.S.C.N.v.u.u.q.q.8.8.;.8.;.;.<.;.<.p.;.1.;.p.1.;.1.;.1.;.1.p.;.1.;.1.;.,.1.<.1. .,. .;.1. .1.,.,.i o ",
"# . c.u.z.z.z.l.z.z.b.z.b.b.b.k.r.4.{ >.| |  .;.,.;.;.8.8.8.w.;.<.;.1.1.;.1.;.1.1.1.1.;.1.1.p.;.1.1.1.,.,. . . .1. .;.1. . .3 o ",
"O . k.j.t.u.z.z.u.u.l.u.r.r.8.{ [ | | | | ;. .,.4.;.8.q.8.q.q.r.h.q.<.;.1.1.1.p.;.1.;.p.1.;.1.1.1. . . . . . .1.;.1.1.1. .1.i # ",
"O . t.t.r.g.t.t.g.r.u.q.-.3.| | ' | | | ;...;.,.;.<.8.q.q.q.q.u.u.u.h.<.p.;.;.1.p.;.1.;.1.p.;.1.<.1.1. .O. . . . . . .;.1.;.i # ",
"O . w.r.r.r.k.r.u.8.8.' N N N N | |  .;. .;.,.;.,.;.8.u.q.u.r.r.u.u.u.u.u.s.p.;.;.1.p.1.1.;.1.1.;.1. .,. .,.O. .1. . .1. .1.i # ",
"* . g.r.r.k.k.u.r.8.| N v N | | | | ;.;.<.;.<.8.8.q.q.r.u.r.u.u.u.z.b.b.u.u.q.p.1.p.;.1.;.1.1.;.1.1.1. .1. .1.` 1. .1.1.;.1.3 # ",
"* . d.j.g.u.r.r.q.V m v N N | | | ;.,.,.;.8.8.q.q.u.h.u.u.b.b.C.C.C.C.C.M.b.u.u.p.;.1.1.1.1.;.O.1.;.,. .<. . .1. . .1. .1. .i o ",
"* . w.j.j.j.r.q.8.v v v v N | | | ,.;.<.8.8.q.q.h.u.u.k.v.M.M.C.Z.C.C.C.C.C.M.b.u.p.;.p.;.1.1. .1.1.1.1. .1. .1. .1.;.1.;.O.i o ",
"O . d.j.g.g.t.r.| N v v v ` | | ,.>.,.;.8.;.q.q.q.u.u.v.u.z.C.C.C.A.A.C.C.C.C.C.v.h.p.1.1.1.1.1.1. .1. .1. .1. .1.1. .1. .` 3 o ",
"O o w.j.d.t.r.[ f f v v | | | | 3.>.;.8.q.q.h.h.u.u.b.b.v.C.C.C.C.C.A.Z.A.C.A.C.M.n.h.1.1.1.o. .<.1.,.1. .1. .1. . .O.;.` ` 3 . ",
"# . g.j.j.g.8.] q f v ` | | |  .,.;.8.8.q.q.q.u.u.v.v.b.C.C.C.C.C.A.Z.A.A.A.A.C.A.C.u.p.;.1.1.o.1. .1. .1.1. .1. . . .O. .` 3 . ",
"* o d.j.g.r.8.f 6 v v N ` | | ;.<.,.8.8.q.h.q.u.u.u.v.b.n.C.C.C.C.C.A.A.Z.A.A.A.C.A.C.p.p.1.,.o.1.1. . . .1. . .1. .1. .` v 3 . ",
"4 o x.j.l.q.| 5 s v v | | | | >.;.;.q.q.q.q.q.u.v.N.M.v.n.C.C.C.C.C.Z.A.F.A.F.A.A.A.A.u.s.1.1.1.,.1. .O.1.;.O. .1.;. .` ` v 5 . ",
"2 o x.l.l.h.v 2 f v v | | | | ;.>.<.q.;.q.q.h.u.l.u.l.i.C.C.C.C.C.C.A.A.A.F.A.Z.A.A.A.Z.h.<.1.1.,.;.1. . .1.O.1.;.` ` ` v v 2 . ",
"4 o g.c.l.8.p 6 f v N ` | |  .>.;.8.8.s.q.q.q.u.u.v.M.M.C.C.Z.A.C.A.A.F.F.F.G.A.G.A.A.A.n.p.;.<.2.1. . .1. .1. .` ` ` v v v 4 . ",
"4 o g.v.l.q., q s v ` N | |  . .,.;.8.q.;.u.h.u.v.u.N.M.n.C.Z.C.A.A.F.F.J.K.A.J.G.G.F.F.Z.h.1.<.<.1.O. . . .` ` v v v ` v v 2 . ",
"4 o m.b.v.q.q 0 f v N | | |  ...;.<.8.;.h.;.q.u.u.v.M.u.C.C.Z.A.A.F.F.J.A.G.J.A.G.F.A.K.H.u.<.<.<.1. .1.,. .` ) v v v v v 5 4 . ",
"4 . m.n.m.s.9 0 f v N ` | |  .;. .;.;.q.;.q.h.u.N.u.u.M.C.C.C.Z.F.A.J.A.J.J.J.K.G.G.A.J.Z.b.1.1.o.,.1. . .` ` v v v v v q 0 2 . ",
", o N.n.M.h.d q r f N ` | | |  .;.,.<.q.h.;.h.p.u.u.v.M.M.C.C.A.F.Z.H.J.A.A.J.A.K.A.J.K.J.k.<.1.;.1.1.;. .` v f v v v s s 6 , . ",
", o n.n.n.r.d 6 q d N N | | | ,.,.;.;.;.h.;.p.i.2.h.u.M.M.M.C.A.F.A.G.A.K.A.K.J.K.J.A.K.J.k.1.1.1.1.1.1.` ` v v v v v 5 s 8 , . ",
"# . M.M.v.2.9 9 d f N N | | | | ;.8.p.;.;.p.;.1.i.;.u.u.M.u.C.A.F.A.A.J.J.K.K.K.K.K.K.L.K.l.1.1.1. .;. .` ` v v v v f s 4 2 < . ",
"@ . M.n.M.2.& 6 s v v ` | | { ,.;.8.;.p.h.;.p.;.1.;.h.u.u.u.C.A.A.A.K.K.K.K.L.L.L.L.L.L.K.l.1.1.1.1.1.` v s v ` v f s 4 6 , < . ",
". . c.l.g.<.* 8 s f N N | | |  .;.;.q.q.;.p.;.;.;.;.p.h.u.C.z.C.Z.A.J.K.J.K.L.L.L.L.L.L.K.z.1.1.o.;. .` f v N v v v s s 4 8 < . ",
"@ . c.t.s.,.# 7 0 v v N ]  .$.3.<.q.p.i.h.u.h.p. .| ;.h.i.z.u.C.A.C.A.A.A.A.L.L.L.L.K.K.A.k.1. .o. .` f v v v v v v f s 6 6 @ . ",
"@ . u.s.s.1.# + 8 v v N ] |  .,.;.q.q.h.q.q.u.V d a ,.q.v.u.z.q.3.c a m 3.C.A.L.J.A.y.e.M.N.1.1.` v r f v s f v s 3 s q 6 8 @ . ",
"o . d.p.p.<.4 + 7 f v N | 4. .;.;.q.p.i.h.u.;.B z 9 | u.u.u.9.g l g g k j z.Z.K.A.@.g a 9.C.<.` v 5 v s v f v f s 6 4 p & 6 @ . ",
"@ . s.p.;.<.) o $ s m N N | ;.,.,.;.q.h.;.;.>.$.l w | q.h.8.@.V 3.>.-.<.-.h.C.A.z.u.r.p.N.p.` v r 5 4 q s s 5 5 8 # 7 & - O @ . ",
"@ . w.p.p.<.` < $ 6 f N N N <.<.<.;.8.q.r.8.>.4.M k ,.u.n.u.r.r.r.8.-.2.;.b.Z.G.M.u.u.v.;.v v v v 3 0 f s s 6 q & $ * O - - @ . ",
"< . w.;.<.<. .r O 8 f N N | ' <.;.q.8.8.>.4.7.4.F e r.b.A.u.h.u.h.p.1.;.<.u.A.A.C.h.p.A.` v ` ) v q 6 6 8 < 7 % = 1 & & - - $ o ",
"< . s.2.<.1.O.` # $ q v N f v N s.,.| [ 4.$.@.%.F m u.A.A.u.u.h.h.q.<.,.,.v.C.A.F.i.h.y.s f v v s 4 4 6 8 % 1 = = = = # - - @ . ",
"4 . 0.<.1.;.` ` 4 7 7 m N m k d N u. .@.4.@.' @.c 8.u.A.A.u.l.q.h.;.;. .p.u.b.G.A.v.s.u.v v v s 6 8 7 % 1 1 u L u = = % O - < . ",
"< . 0.1. .1.O.` v O 7 f N V F ' 9 q.q.5.$.$.F F b >.u.M.A.h.h.h.;.p.,.u.v.u.v.A.C.h.h.u.v v s 1 % $ 1 1 = y J J u J u = 3 O @ . ",
"4 . 2.1.1. .O.` `   $ j N [ 5.*.B X 7 d B 5.9.$.,.;.h.u.v.v.;.a.a.h.v.v.h.u.M.;.u.C.b.C.v v 1 7 $ 1 w y y J P P J L J u 5 5 , . ",
"4 @ 2.1. .O. .O.O.r # d B [ 5.6.M + k M 9 4.r.q.h.s.h.i.u.i.v.i.h.i.v.h.u.q.m y.4.A.C.C.) f 1 % 7 = J P J L J P P P J u 9 8 # . ",
"4 o o.<.1. .O.1.` ` 0 q N ..5.6.) X : l M n 4.q.i.p.;.a.h.v.i.v.v.v.h.i.g.h y.S y.C.M.z.v 5 1 1 e u J P U U I P P J J I 1 $ 2 . ",
"2 . 2.1.` 1.` O.O.` ` < b ' 6...,.8 e B @.m m q.p.p.h.i.h.p.p.s.| i.h.N.9 w A.B z.u.u.v v f 1 g L P Z V.A.V.V.U I Y I J 9 9 2 o ",
"2 o s.O.1.O.O.` O.` ` v q N 4.X. .0 9 N F 4.b V q.;.s.h.h.i.u.u.;.s.v.k.l C y.9.g.u.l.v f f = y P P U A.B.A.A.V.P J y e e r 4 . ",
"4 o 0.1.O. .` O.` O.O.` ` ) ..` X.6 $ z ' ] V z N ;.h.p.u.h.u.u.h.u.n.C.M S z.y.z.>.5 f s q e u P I V.V.V.K.V.U K y e e r s 4 . ",
"2 o :. .E E E ` O.` ` O.` O.` O.) 7 $ k ] B V ' 5.4.V d p [ r.;.q.u.D.A.A.9.u.C.f s r q 5 9 = u J Y I J I V.Y Y J y g t e t 4 o ",
"2 . :.E x T x ` O.O.` X.X.` O.` f + 7 k B | ] 4.9.*.k e m M e.<.u.v.C.G.A.C.C.A.s 0 8 q v 1 = y L Y U U P U I P J = y e = e 4 o ",
"2 o R T x E v O.` ` ` X.` O.` X._ + 7 d [ >.8.u.k.9.k k m k 5.-.q.z.C.Z.J.G.Z.A.v 0 4 f f 9 = = J / / Y J J K J y 1 1 1 t t 5 o ",
"* o R x E - ;.1.O.O.X.} O.` O.} q e 7 e [ 8.8.u.u.y.k B B k +.,.r.;.u.C.C.J.A.C.v s s s s 8 1 e y U Y J P K g e = 1 y y u L 4 o ",
", . -.x x p O.1.O.O.` ` ` O.` X.v 7 : e $.8.q.h.u.z.B B F b B [ 8.;.s.C.q.z.n.M.v v r 0 4 7 8 1 = K J Z K y $ : 1 1 e u u u 3 o ",
"2 . x x p V 1.1.O.O.` O.O.` O.o.| 8 q 9 ] ;.8.q.h.M.' { V +.N 4.| | ;.u.;.z.z.y.) v 0 6 $ $ q 1 e K K K = t 8 : i 1 e r K u 4 o ",
"2 . p ` ` p.1.a.1.O.O.O.` O.` } n v 0 9 b 3.q.;.q.z.h.` 1.8...4.,.,.;.N.p.u.u.-.` r 5 8 8 8 6 1 1 = t 1 1 8 , 8 = = 1 0 H P 3 o ",
"* . <.1.s.O.a.} { 1.O.` O.O.) .. .N r e N | ;.<.;.u.u.u.` 8.7.>.,.;.p.v.i.u.v.p.v r 5 6 6 6 q v r 1 1 1 0 0 r y y y = u P H 3 o ",
"3 . 3.1.1...( ( K U _ O.` ` ` _ e G @.B b |  .;.;.<.u.z.q.,.| <. .r.u.v.M.h.M.-.` v 5 r s s h W T - 0 0 0 r r u L J J J J H 3 o ",
"2 . 3.1.1.#.f.K U U ( n N N c V ) [ %.B B v |  .;.<.h.u.h.s.<.8.| q.v.u.u.M.v.` v r v r r q x Q T T - 4 5 r f g u L J J K H 3 o ",
"* o 3.1.p.p.&.U K K ( V  .v x T | } ) b B B N  .` ;.;.s.u.h.h.<.p.u.v.n.M.N.2.` v v v s s r h Q T T x i i 6 v s 6 n t y J J 5 o ",
"3 . >.1.1.p.( K I ' M N f v T - V 7.` 9 j M S V ` ;.;.p.q.p.h.u.h.h.u.u.l.h.` ) v r s s r q r T T T ; T v i a h C C X N S _ 3 o ",
"2 o 7.1.1.1.#.K =.B 5.5.m x T f +.+._ N B +.D *.[ ` 1.;.p.;.h.v.M.C.Z.C.C.q.` r r r 0 0 s 4 4 q T T x a x h c h A z ; c ! ^ 3 o ",
"* o %.1.1.+.=.%.#.*.e.$.p T E i +.N e M m V S *.*.$. .;.;.h.;.N.C.D.H.F.G.s.` v r s 5 4 4 4 x x - T T T x h A c c N c ! Q V 3 o ",
"* o 0.E o.o.v N #.*.e.[ x T v V >.O.v 7 B F F S Z G ` `  .p.h.u.C.F.J.K.Z.` ) v v r 4 - - T T T T - ; T W ~ N c W W W h V x 3 o ",
"& . 0.x c ,.,.3.D #.#.a T x v d G | f 7 k F G S G +.) ) ` ;.;.h.N.D.H.Z.C.v v v v i - T - T T W W > ; ; T T c A W W h c W T 3 o ",
"* o :.Q x V o.E G W ~ x T x ` f B m 1 M M C C @.5.| ) ) ` `  .p.h.h.C.h.o.v r r r p T - - h T Q W A V W c h V W T ~ T c W T 3 o ",
"3 o :.:.Q T T :.~ Q :.x E v O. .v 8 1 k B F F Z 5.4.` ) ) ` ` ) v ) ) ) ` ` ) r 0 4 & p h W Q W W x T Q Q W W c > W T T v > 3 o ",
"4 o -.| V V T E ;.W E x E c >.| N k % 1 m D G S G 8.1.O.` ) ` ` ` ` ) ) ) ) ) v 4 r v v m ~ D W A c T W Q Q > h ; h > T T ; 2 o ",
"5 o -. .V V E | <.W Q c E v 4.%.B 7 + % a b +.F F <.h.h.h.p.` } } } ) ) ) ) r r v v v r v v v N v c ! ! W W a a ; ; h c W ; 2 o ",
"4 4 i i 5 5 5 5 i i i i 3 3 * 2 , * # # * # O O o o o o o o . . . . o o O O O O O O O O O o o o O O O O * O * * * * 2 # 2 2 2 . ",
"o . . . . o o o o # O o o o o o @ . . o . . . . . . . . . . . . . . . . . . o . . o o . . . o o o o o o . # O O # # o o o o o o "
};
