/* XPM */
static char *_83f7f2cf3a84e48ebeaec168f3a7e42dlHUlTueQXQWmuKM[] = {
/* columns rows colors chars-per-pixel */
"64 64 8 1 ",
"  c None",
". c #352922",
"X c #49372C",
"o c #5B4538",
"O c #6A5244",
"+ c #01A7AC",
"@ c #60F5FA",
"# c white",
/* pixels */
"                                                                ",
"                                                                ",
"                                                                ",
"                                                                ",
"                                                                ",
"                                                                ",
"                                                                ",
"                                                                ",
"                            @@@@                                ",
"                          @@@@@@@@                              ",
"                        @@@@######@@                            ",
"                      @@@###########@@                          ",
"                     ..@#############@@                         ",
"                    ....#############@@@                        ",
"                   @....##############@@@                       ",
"                   @@..###############@@@                       ",
"                  @@@@######@..######@@@@O                      ",
"                  @@+######@....####@@@@OO                      ",
"                 @@+@#####@@....@@@@@@@O+OO                     ",
"                 @@+@@##@@@@@..@+++@@@++++O                     ",
"                 @++@@@@@++@@@@++++++++OOO+O                    ",
"                 @++@@....++@@+++++++OOOOOOO                    ",
"                 @+@O......O++++OO++OOOOOOOO                    ",
"                 @+O........O+++OOO+OOOOOOO                     ",
"                 +OO........OO+OOOOO+OOOOO                      ",
"                 OOO........OO+OOOOOOOOOOO                      ",
"                  oOO.......O+OOOOOOOOOOO                       ",
"                  oOO.......++OOOOOOOOOOo                       ",
"                  ooOO.....O+OOOOOOOOOoo     X                  ",
"                  ooOO.....OOOOOOOOOooo      X                  ",
"                   ooOO...OOOOOOOOOooo      XX                  ",
"                   oooO..OOOOOOOOOoooo      XX                  ",
"                    ooooOOOOOOOOooooo      XXX                  ",
"                    ooooooOOOOooooooo     XXXX                  ",
"                     ooooooooooooooo     XXXX                   ",
"                     oooooooooooooo     XXXXX                   ",
"                      oooooooooooo    XXXXXX                    ",
"                      oooooooooooXo XXXXXXX                     ",
"                       oooooooooooXXXXXXXX                      ",
"                       ooooooooooooXXoXXXX                      ",
"                        oooooooooooooXXXX                       ",
"                         XooooooooooXXXXX                       ",
"                          XXooooooXXXXXX                        ",
"                            XXooXXXXXXX                         ",
"                              XXXXXXXX                          ",
"                                XXXX                            ",
"                                                                ",
"                                                                ",
"                                                                ",
"                                                                ",
"                                                                ",
"                                                                ",
"                                                                ",
"                                                                ",
"                                                                ",
"                                                                ",
"                                                                ",
"                                                                ",
"                                                                ",
"                                                                ",
"                                                                ",
"                                                                ",
"                                                                ",
"                                                                "
};
