/* XPM */
static char *b40c0e84b6244093a78ad4631fe9da4bwJqmZGa6g9JwAxxH[] = {
/* columns rows colors chars-per-pixel */
"64 64 9 1 ",
"  c None",
". c #352922",
"X c #49372C",
"o c #5B4538",
"O c #6A5244",
"+ c #796152",
"@ c #01A7AC",
"# c #60F5FA",
"$ c white",
/* pixels */
"                                                                ",
"                                                                ",
"                                                                ",
"                                                                ",
"                                                                ",
"                                                                ",
"                                                                ",
"                                                                ",
"                                                                ",
"                                                                ",
"                                                                ",
"                                                                ",
"                                                                ",
"                                                                ",
"                                                                ",
"                                                                ",
"                                                                ",
"                                XXXXXX                          ",
"                        XXXXXXXXXXooooXX                        ",
"                           XXXXooooooooXX                       ",
"                              XXoooooooooX                      ",
"                                ooooooooooX                     ",
"                                 ooooooooooo                    ",
"                                  oooooooooo                    ",
"                     ###@         ooooooooooo                   ",
"                    #####@        ooooooooooo                   ",
"                   ######@@      oooooooooooo                   ",
"                   #######@      ooooooooooooo                  ",
"                  ##$$####@@     oooOOOOoooooo                  ",
"                  #$$$$####@    oooOOOOOOooooo                  ",
"                 #$$$$$$####@   ooOOOOOOOOooooo                 ",
"                 #$$$$$$####@   ooOOOOOOOOooooo                 ",
"                ##$$$$$$$###@@ ooOOOOOOOOOOoooo                 ",
"                ###$$$$$$###@@oooOOOOOOOOOOooooo                ",
"                @###$$$$$$##@@ooOOOOOOOOOOOOoooo                ",
"                @@####$$$$##@@ooOOOOOOOOOOOOoooo                ",
"                @@@@@..#$$$#@..ooOOOOOOOOOOOoooo                ",
"                @@@@....$$$#....oOOOOOOOOOOOoooo                ",
"                @@@@....$$##....+oOOOOOOOOOOooo                 ",
"                @@@@@..##$##@..+@+OOOOOOOOOOooo                 ",
"                 @@@@@#####@@@@@+OOOOOOOOOOooo                  ",
"                 @@@@@@##@@@@@@@+OOOOOOOOOOooo                  ",
"                  O@@@@@@@@@@@@@+OOOOOOOOOooo                   ",
"                  OO@@@@@@@@@@@@+OOOOOOOOOooo                   ",
"                   @O++++@@..@@@@OOOOOOOOooo                    ",
"                   OO+++@@....@@@@OOOOOOOooo                    ",
"                    OO+@O......oOO@OOOOOooo                     ",
"                     O++........oOOOOOOOooo                     ",
"                      O+........oOOOOOOooo                      ",
"                       OO......oOOOOOOooo                       ",
"                        OO....ooOOOOoooo                        ",
"                          O..ooOOOOooo                          ",
"                            OOOOOOoo                            ",
"                              OOoo                              ",
"                                                                ",
"                                                                ",
"                                                                ",
"                                                                ",
"                                                                ",
"                                                                ",
"                                                                ",
"                                                                ",
"                                                                ",
"                                                                "
};
