/* XPM */
static char *b9a5d8f7d686475b97eda819077dfbd7ge95pVcGUuN3cOw1[] = {
/* columns rows colors chars-per-pixel */
"64 64 6 1 ",
"  c None",
". c #352922",
"X c #49372C",
"o c #01A7AC",
"O c #60F5FA",
"+ c white",
/* pixels */
"                                                                ",
"                                                                ",
"                                                                ",
"                                                                ",
"                            OOOO                                ",
"                          OOOOOOOO                              ",
"                         OOOOO+++OO                             ",
"                        OOO+++++++OO                            ",
"                       OO..++++++..OO                           ",
"                       O....++++....O                           ",
"                      OO....++++....oO                          ",
"                      OO+..++++++..+oo                          ",
"                     OOO++++++++++++OoO                         ",
"                     OOOO++++++++++OOOo                         ",
"                     OOOOo++++++++OOOOoo                        ",
"                     OOOoOOO++++OoOOOOOo                        ",
"                     OOOoOOOO..OOOooOOOo                        ",
"                     OOoOOOO....OOOooOoO                        ",
"                      OoOOO.....oOoOoOOO                        ",
"                      ooOOO.....oOoOooOO                        ",
"                       oOO......ooOOooO                         ",
"                       oOO......oooOooo                         ",
"                        oO......oooooo                          ",
"                        ooo....ooooooo                          ",
"                         ooo..ooooooo                           ",
"                         oooooooooooo                           ",
"                          oooooooooo                            ",
"                           Xoooooooo                            ",
"                            XooooooX                            ",
"                            XXooooXX                            ",
"                             XXXXXX                             ",
"                             XXXXXX                             ",
"                              XXXX                              ",
"                              XXXX                              ",
"                              XXX                               ",
"                               XX                               ",
"                               X                                ",
"                               X                                ",
"                                X                               ",
"                                                                ",
"                                                                ",
"                                                                ",
"                                                                ",
"                                                                ",
"                                                                ",
"                                                                ",
"                                                                ",
"                                                                ",
"                                                                ",
"                                                                ",
"                                                                ",
"                                                                ",
"                                                                ",
"                                                                ",
"                                                                ",
"                                                                ",
"                                                                ",
"                                                                ",
"                                                                ",
"                                                                ",
"                                                                ",
"                                                                ",
"                                                                ",
"                                                                "
};
