/* XPM */
static char *a23cb9b3700f44e794ff9d4461501678TPN8PDi1xmLuNmJv[] = {
/* columns rows colors chars-per-pixel */
"64 64 6 1 ",
"  c None",
". c #352922",
"X c #49372C",
"o c #5B4538",
"O c #6A5244",
"+ c #796152",
/* pixels */
"                                                                ",
"                                                                ",
"                                                                ",
"                                                                ",
"                                                                ",
"                                                                ",
"                                                                ",
"                                                                ",
"                                                                ",
"                                                                ",
"                                                                ",
"                                                                ",
"                                                                ",
"                                                                ",
"                                                                ",
"                                                                ",
"                            OOOOOO                              ",
"                          OOOOOO++++                            ",
"                        OOOOO...++++++                          ",
"                      OOOOOO.....++++OO+                        ",
"                     oOO..........++O..O+                       ",
"                    oOOO+.......+++O....++                      ",
"                   oOOOO++....++++++....++O                     ",
"                   oOOOO+++++++++++++..++++O                    ",
"                  oOOOOO++++++++++++++++++++O                   ",
"                  oOOOOO++++++++++++++++++++O                   ",
"                 oOOOOOO++++++++++++++++++++OO                  ",
"                 oOOOOOO++++++++++++++++++++OO                  ",
"                 oOOOOOOO+++++++++++++++++++OOo                 ",
"                 oOOOOOOO+++++++++++++++++++OOo                 ",
"                 ooOOOOOOO+++++++++++++++++OOOoo                ",
"                 ooOOOOOOO+++++++++++++++++OOOoo                ",
"                  ooOOOOOOO+++++++++++++++OOOOoo                ",
"                  ooOOOOOOOO++++++++++++++OOOOoX                ",
"                   ooOOOOOOOOOOOO++++++++OOOOooX                ",
"                   oooOOOOOOOOOOOOOO++++OOOOOooX                ",
"                    oooOOOOOOOoooOOOOOOOOOOOOoX                 ",
"                    ooooOOOOooooooOOOOOOOOOOooX                 ",
"                     oooooooooo   ooOOOOOOOooX                  ",
"                     ooooooooo     oooOOOOooX                   ",
"                      ooooooo       XoooooXX                    ",
"                      ooooooX         XXXX                      ",
"                       ooooX                                    ",
"                       ooooX                                    ",
"                        oooX                                    ",
"                        XoXX                                    ",
"                         XXX                                    ",
"                         XXX                                    ",
"                          XX                                    ",
"                          XX                                    ",
"                           X                                    ",
"                           X                                    ",
"                                                                ",
"                                                                ",
"                                                                ",
"                                                                ",
"                                                                ",
"                                                                ",
"                                                                ",
"                                                                ",
"                                                                ",
"                                                                ",
"                                                                ",
"                                                                "
};
