/* XPM */
static char *result[] = {
/* columns rows colors chars-per-pixel */
"32 32 5 1 ",
"  c #018E93",
". c #01A7AC",
"X c #60F5FA",
"o c white",
"O c None",
/* pixels */
"OOOOOOOOOOOOOOOOOOOOOOOOOOOOOOOO",
"OOOOOOOOOOOOOOOOOOOOOOOOOOOOOOOO",
"OOOOOOOOOOOOOOO OOOOOOOOOOOOOOOO",
"OOOOOOOOOOOOOOO OOOOOOOOOOOOOOOO",
"OOOOOOOOOOOOOO.X OOOOOOOOOOOOOOO",
"OOOOOOOOOOOOOO.X OOOOOOOOOOOOOOO",
"OOOOOOOOOOOOO.XX OOOOOOOOOOOOOOO",
"OOOOOOOOOOOOO.XXX OOOOOOOOOOOOOO",
"OOOOOOOOOOOOO.XXX.OOOOOOOOOOOOOO",
"OOOOOOOOOOOO.XXXX.OOOOOOOOOOOOOO",
"OOOOOOOOOOOO.XXXXX.OOOOOOOOOOOOO",
"OOOOOOOOOOOO.XXXXX.OOOOOOOOOOOOO",
"OOOOOOOOOOO.XXoXXXX.OOOOOOOOOOOO",
"OOOOOOOOOOO.XXooXXX.OOOOOOOOOOOO",
"OOOOOOOOOOO.XXoooXXX.OOOOOOOOOOO",
"OOOOOOOOOO.XXooooXXX.OOOOOOOOOOO",
"OOOOOOOOOO.XXoooooXXX.OOOOOOOOOO",
"OOOOOOOOOO.XXoooooXXX.OOOOOOOOOO",
"OOOOOOOOO.XXoooooooXXX.OOOOOOOOO",
"OOOOOOOOO.XXoooooooXXX.OOOOOOOOO",
"OOOOOOOO.XXXooooooooXXX.OOOOOOOO",
"OOOOOOOO.XXXooooooooXXX.OOOOOOOO",
"OOOOOOOO.XXXooooooooXXX.OOOOOOOO",
"OOOOOOOO.XXXooooooooXXX.OOOOOOOO",
"OOOOOOOOO.XXXooooooXXX.OOOOOOOOO",
"OOOOOOOOO.XXXXooooXXXX.OOOOOOOOO",
"OOOOOOOOOO.XXXXXXXXXX.OOOOOOOOOO",
"OOOOOOOOOOO.XXXXXXXX.OOOOOOOOOOO",
"OOOOOOOOOOOO..XXXX..OOOOOOOOOOOO",
"OOOOOOOOOOOOOO....OOOOOOOOOOOOOO",
"OOOOOOOOOOOOOOOOOOOOOOOOOOOOOOOO",
"OOOOOOOOOOOOOOOOOOOOOOOOOOOOOOOO"
};
