/* XPM */
static char *_b82ed6312c2430aeb4d4a494281cbfcUh0cPGPNcWXZ5TB0[] = {
/* columns rows colors chars-per-pixel */
"64 64 5 1 ",
"  c None",
". c #352922",
"X c #5B4538",
"o c #6A5244",
"O c #796152",
/* pixels */
"                                                                ",
"                                                                ",
"                                                                ",
"                                                                ",
"                                                                ",
"                                                                ",
"                                                                ",
"                                                                ",
"                                                                ",
"                                                                ",
"                                                                ",
"                                                                ",
"                                                                ",
"                                                                ",
"                                                                ",
"                                                                ",
"                                                                ",
"                                                                ",
"                                                                ",
"                                                                ",
"                                                                ",
"                                                                ",
"                                                                ",
"                                                                ",
"                                                                ",
"                                                                ",
"                                                                ",
"                                                                ",
"                            XXXXXXXX                            ",
"                          XXooooooooXX                          ",
"                        XXooooooooooooXX                        ",
"                       XooooooooooooooooX                       ",
"                      XoooooooOOOOOOoooooX                      ",
"                      XoooooOOOOOOOOOOoooX                      ",
"                     XooooOOOOOOOOOOOOOOooX                     ",
"                     XoooOOOOOOOOOOOOOOOOoX                     ",
"                    XoooOOO..OOOOOO..OOOOOoX                    ",
"                    XoooOO....OOOO....OOOOOo                    ",
"                    XooOOO....OOOO....OOOOOo                    ",
"                    XooOOOo..oOOOOo..oOOOOOo                    ",
"                    XoOOOOOooOOOOOOooOOOOOOo                    ",
"                    XoOOOOOOOOOOOOOOOOOOOOOo                    ",
"                    XoOOOOOOOOOooOOOOOOOOOoX                    ",
"                     oOOOOOOOOooooOOOOOOOOo                     ",
"                     oOOOOOOOoo..ooOOOOOOOo                     ",
"                     XOOOOOOOo....oOOOOOOOX                     ",
"                      oOOOOOo......oOOOOOo                      ",
"                      oOOOOOo......oOOOOOo                      ",
"                      ooOOOO........OOOOoo                      ",
"                       oOOOO........OOOOo                       ",
"                       ooOOo........oOOoo                       ",
"                       ooooo........ooooo                       ",
"                        ooooo......ooooo                        ",
"                        ooooo......ooooo                        ",
"                         ooooo....ooooo                         ",
"                         oooooo..oooooX                         ",
"                          oooooooooooX                          ",
"                          XoooooooooXX                          ",
"                           XoooooooXX                           ",
"                           XXoooooXXX                           ",
"                            XXXXXXXX                            ",
"                             XXXXXX                             ",
"                              XXXX                              ",
"                               XX                               "
};
