/* XPM */
static char *c5f12c7067fb48719bed01faa2e5a877KUbUV98lOqbEdtEW[] = {
/* columns rows colors chars-per-pixel */
"64 64 8 1 ",
"  c None",
". c #352922",
"X c #49372C",
"o c #5B4538",
"O c #6A5244",
"+ c #796152",
"@ c #0B878A",
"# c #01A7AC",
/* pixels */
"                                                                ",
"                                                                ",
"                                                                ",
"                                                                ",
"                                                                ",
"                                                                ",
"                                                                ",
"                                                                ",
"                                                                ",
"                                                                ",
"                                                                ",
"                                                                ",
"                                                                ",
"                                                                ",
"                                                                ",
"                                                                ",
"                          oooooooo                              ",
"                        XXoooooooooo                            ",
"                      XXoooooooooooooo                          ",
"                     XooooooooooooooooXX                        ",
"                    XoooooooooooooOOOOooX                       ",
"                   XooooooooooooOOOOOOOOoX                      ",
"                  XoooooooooooOOOOOOOOOOOOX                     ",
"                  XooooooooooOOOOOOOOOOOOOoX                    ",
"                 XoooooX   oOOOOOOOOOOOOO..oX                   ",
"                 XooooX     OOOOOOOOOOOO....X                   ",
"                XXXooX      oOOOOOOOOO++....oX                  ",
"                XXXoXX      oOOOOOOO+++++..OOX                  ",
"                XXXXX      oOOOOOOO+++++++++OoX                 ",
"                XXXXX      oOOOOOO++++++++++OOX                 ",
"                XXXX      ooOOOOO++++++++++++OoX                ",
"                XXXX      oOOOOOO+++++++++++++OX                ",
"                 XXX     ooOOOOOO+++++++++++++OX                ",
"                  XX     ooOOOOO++++++++++++++OX                ",
"                  XX     ooOOOOO++++++++++++++OO                ",
"                   X     oooOOOO+++++++++OO+++OO                ",
"                   X     oooOOO++++++++++..O++O                 ",
"                   X     XooOOO+++++++++....O+O                 ",
"                          XooOO+++++++++....OO                  ",
"                          XooO+++++++++++..++O                  ",
"                           XoO++++++++++++++O                   ",
"                           Xoo++++++++++++++O                   ",
"                            XoO++++++++++++O                    ",
"                            XXoO+++++++++++O                    ",
"                             XXo##++++++++O                     ",
"                             XX#####++++++O                     ",
"                              @######@@++O                      ",
"                               @@#####@@O                       ",
"                                @@@##@OO                        ",
"                                  @@@@                          ",
"                                                                ",
"                                                                ",
"                                                                ",
"                                                                ",
"                                                                ",
"                                                                ",
"                                                                ",
"                                                                ",
"                                                                ",
"                                                                ",
"                                                                ",
"                                                                ",
"                                                                ",
"                                                                "
};
