/* XPM */
static char *result[] = {
/* columns rows colors chars-per-pixel */
"64 64 8 1 ",
"  c #352922",
". c #49372C",
"X c #5B4538",
"o c #6A5244",
"O c #796152",
"+ c #01A7AC",
"@ c #60F5FA",
"# c None",
/* pixels */
"################################################################",
"################################################################",
"################################################################",
"################################################################",
"################################################################",
"################################################################",
"################################################################",
"################################################################",
"################################################################",
"################################################################",
"################################################################",
"################################################################",
"################################################################",
"################################################################",
"################################################################",
"################################################################",
"###########################.....XX##############################",
"########################.......XXXXX############################",
"################.............XXXXXXXXX##########################",
"###################........XXXXXXXXXXXXX########################",
"######################...XXXXXXXXXXXXXXXX#######################",
"########################..XXXXXXXXXXXXXXXX######################",
"##########################.XXXXXXXXXXXXXXXX#####################",
"###########################.XXXXXXXXXXXXXXXX####################",
"############################XXXXXXXXXXXXXXXXX###################",
"############################XXXXXXXXXXXXXXXXX###################",
"############################XXooooooooooXXXXXX##################",
"############################XoooooooooooooXXXX##################",
"###########################XooooooooooooooooXXX#################",
"##########################XooooooooooooooooooXX#################",
"#########################XooooooOOOOOOOOooooooXX################",
"#########################XooooOOOOOOOOOOOOooooXX################",
"########################XooooOOOOOOOOOOOOOOooooX################",
"########################XooooOOOOOOOOOOOOOoooooX################",
"#######################XooooOOOOOOOOOOOOOo  oooo################",
"#######################XooooOOOOOOOOOOO+o    ooo################",
"######################XoooooOOOOO  oOOO+o    ooo################",
"######################XoooooOOOO    oO++      oo################",
"#####################Xoooooo+OOO    o+++      o#################",
"#####################Xoooooo+@OOo  o++++o    oo#################",
"#####################Xoooooo@@@++++++++Oo    o##################",
"#####################Xoooooo+@@@+++++++OOo  oo##################",
"#####################Xooooooo+@@++++++OOOOOoo###################",
"#####################Xooooooo++@+++++OOOOOOOo###################",
"######################Xooooooo++@+++O  OOOOo####################",
"######################Xoooooooo+++OO    oOo#####################",
"#######################XooooooooOOOO    oo######################",
"########################XoooooooooOOo  oo#######################",
"#########################Xoooooooooooooo########################",
"##########################XXoooooooooo##########################",
"############################XXooooXX############################",
"##############################XXXX##############################",
"################################################################",
"################################################################",
"################################################################",
"################################################################",
"################################################################",
"################################################################",
"################################################################",
"################################################################",
"################################################################",
"################################################################",
"################################################################",
"################################################################"
};
