/* XPM */
static char *_bce9f89556246d7a3b6207c5f5f6c3airScNdnw76tdudVr[] = {
/* columns rows colors chars-per-pixel */
"64 64 6 1 ",
"  c None",
". c #352922",
"X c #49372C",
"o c #5B4538",
"O c #6A5244",
"+ c #796152",
/* pixels */
"                                                                ",
"                                                                ",
"                                                                ",
"                                                                ",
"                                                                ",
"                                                                ",
"                                                                ",
"                                                                ",
"                                                                ",
"                                                                ",
"                                                                ",
"                                                                ",
"                           oooooo                               ",
"                        OOOOOOOOOooo                            ",
"                      OO+++OOOOOOOOOoo                          ",
"                     O++++++++OOOOOOOOo                         ",
"                    O++++..+++++OOOOOOOo                        ",
"                   O+++O....++++++OOOOOOo                       ",
"                  O++++O....++++++++OOOOOo                      ",
"                  O+++++O..++++++++++OOOOo                      ",
"                 O+++++++OO++++++++++OOOOOo                     ",
"                 O++++++++++++++++++++OOOOo                     ",
"                O+++++++++++++++++++++OOOOOo                    ",
"                O+++++++++++++++++++++OOOOOo                    ",
"                +++++++++++++++++..+++OOOOOo                    ",
"                ++++++O++++++++O....++OOOOOo                    ",
"                +++++..O+++++++O....++OOOOo                     ",
"                ++++....O+++++++O..+++OOOOo                     ",
"                +++O.....O+++++++OO+++OOOo                      ",
"                +++O......O+++++++++++OOOo                      ",
"                O+OO.......O++++++++++OOo                       ",
"                oOOO.......O+++++++++OOOo                       ",
"                 oOOO.......+++++++++OOo                        ",
"                 oOOO.......+++++++++OOo                        ",
"                  oOOO......++++++++OOo                         ",
"                  oOOOO....+++++++++OOo                         ",
"                   oOO+O..O++++++++OOo                          ",
"                   oOO++OO++++++++OOOX                          ",
"                    oOO++++++++++OOOo                           ",
"                    oOO+++++++++OOOoX                           ",
"                    oOOO++++++OOOOoX                            ",
"                     oOO++++OOOOOOoX                            ",
"                     ooOOOOOOOOOOooX                            ",
"                     ooOOOOOOOOOooX                             ",
"                      ooOOOOOOooooX                             ",
"                      oooOOOooooooX                             ",
"                       ooooooooooX                              ",
"                       XoooooooooX                              ",
"                        XoooooooXX                              ",
"                        XXooooXXXX                              ",
"                         XXXXXXXXX                              ",
"                         XXXXXXXX                               ",
"                          XXXXXXX                               ",
"                           XXXXXX                               ",
"                            XXXX                                ",
"                            XXXX                                ",
"                             XXX                                ",
"                             XX                                 ",
"                              X                                 ",
"                              X                                 ",
"                              X                                 ",
"                                                                ",
"                                                                ",
"                                                                "
};
