/* XPM */
static char *fdde8f36ff73423dcb2e52f18b32e021pnLhNb1PBrS5BVc4[] = {
/* columns rows colors chars-per-pixel */
"64 64 6 1 ",
"  c None",
". c #352922",
"X c #49372C",
"o c #5B4538",
"O c #6A5244",
"+ c #796152",
/* pixels */
"                                                                ",
"                                                                ",
"                                                                ",
"                                                                ",
"                                                                ",
"                                                                ",
"                                                                ",
"                                                                ",
"                                                                ",
"                                                                ",
"                                                                ",
"                                                                ",
"                            OOOOOOOO                            ",
"                          +++++OOOOOOO                          ",
"                        ++++++++++OOOOOO                        ",
"                       ++++++OO++++OOOOOO                       ",
"                      ++++++O..+++++OOOOOO                      ",
"                     ++++++O....++++OOOOOO                      ",
"                    +++++++O....+++++OOOOOO                     ",
"                    ++++++++O..++++++OOOOOO                     ",
"                   +++++++++++++++++++OOOOOO                    ",
"                   O..++++++++++++++++OOOOOO                    ",
"                  +O...+++++++++++++++OOOOOO                    ",
"                  OO....++++++++++++++OOOOOO                    ",
"                 +O.....++++++++++++++OOOOOO                    ",
"                 OO.....++++++++++++++OOOOOo                    ",
"                OO.....+++++++++++++++OOOOO                     ",
"                OO.....+++++++++++++++OOOOo                     ",
"                OO....++++++++++++++++OOOOo                     ",
"                OOO..O+++++++++++++++OOOOo                      ",
"                OOOOO++++++++++++++++OOOOo                      ",
"                OOOO++++++++++++++++OOOOOo                      ",
"                OOO++++++++++++++++OOOOOo                       ",
"                 OOO++++++++++++++OOOOOOo                       ",
"                 OOOOO++++++++++OOOOOOOoo                       ",
"                 OOOOOOO++++++OOOOOOOOoo                        ",
"                  OOOOOOOOOOOOOOOOOOoooo                        ",
"                  OOOOOOOOOOOOOOOOOoooX                         ",
"                   OOOOOOOOOOOOOOooooX                          ",
"                   oOOOOOOOOOOOoooooX                           ",
"                    oOOOOOOOOoooooXX                            ",
"                    ooOOOOooooooXX                              ",
"                    oooooooooooX                                ",
"                     oooooooooX                                 ",
"                     ooooooooX                                  ",
"                     ooooooooX                                  ",
"                      ooooooXX                                  ",
"                      XoooooX                                   ",
"                       XoooXX                                   ",
"                       XXoXXX                                   ",
"                        XXXX                                    ",
"                        XXXX                                    ",
"                         XXX                                    ",
"                         XX                                     ",
"                          X                                     ",
"                          X                                     ",
"                          X                                     ",
"                                                                ",
"                                                                ",
"                                                                ",
"                                                                ",
"                                                                ",
"                                                                ",
"                                                                "
};
