/* XPM */
static char *d27a1bf8e9384a1c83894d0e86a6d8b6kyJSqUdQTM6CmJbU[] = {
/* columns rows colors chars-per-pixel */
"64 64 5 1 ",
"  c None",
". c #49372C",
"X c #01A7AC",
"o c #60F5FA",
"O c white",
/* pixels */
"                             oooo                               ",
"                           oooooooo                             ",
"                          ooooOOoooo                            ",
"                         oooOOOOOOooo                           ",
"                         ..OOOOOO..oo                           ",
"                        ....OOOO....oo                          ",
"                        ....OOOO....oo                          ",
"                       Xo..OOOOOO..oooX                         ",
"                       XooooOOOOOOOooXo                         ",
"                       oXoXooOOOOOXooXo                         ",
"                       oXXoooooXoXoooXX                         ",
"                       oXXoooo..XXooXXX                         ",
"                        oXXoo....XXoXX                          ",
"                        oXoo......XoXX                          ",
"                         Xoo......XXX                           ",
"                         oXo......XXX                           ",
"                          XX......XX                            ",
"                           XX....XXX                            ",
"                            XX..XXX                             ",
"                            XXXXXXX                             ",
"                             XXXXX                              ",
"                             XXXXX                              ",
"                              XXX                               ",
"                              XXX                               ",
"                              XX                                ",
"                              XX                                ",
"                              X                                 ",
"                              X                                 ",
"                                                                ",
"                                                                ",
"                                                                ",
"                                                                ",
"                                                                ",
"                                                                ",
"                                                                ",
"                                                                ",
"                                                                ",
"                                                                ",
"                                                                ",
"                                                                ",
"                                                                ",
"                                                                ",
"                                                                ",
"                                                                ",
"                                                                ",
"                                                                ",
"                                                                ",
"                                                                ",
"                                                                ",
"                                                                ",
"                                                                ",
"                                                                ",
"                                                                ",
"                                                                ",
"                                                                ",
"                                                                ",
"                                                                ",
"                                                                ",
"                                                                ",
"                                                                ",
"                                                                ",
"                                                                ",
"                                                                ",
"                                                                "
};
