/* XPM */
static char *result[] = {
/* columns rows colors chars-per-pixel */
"64 64 9 1 ",
"  c #646464",
". c #797979",
"X c #515151",
"o c #3D3D43",
"O c #2F2F37",
"+ c #9C7020",
"@ c #EB9D0E",
"# c #FCEE4B",
"$ c #FFFFB5",
/* pixels */
"  ...   XX    XXXXXooooOOoOOooooX          XX   XX XXoooXXXX X  ",
" ..     X   XXXXXXXXoooooOOooooX            XX X  XXXXoooXXXX   ",
".  . XXX  XXXoXXXXooXoXXooooooXX         XXX XX  XXoXoooXXX     ",
"..    XXXXXXXXooOOXooXXooooOoXoXX XX  ..  XXXXXXXXXXoOOooo XXXX ",
". XXXXXXXXXXXooOO+@#ooOOoOOoooooXX  ... XXX XXXXXXXoooOOoXXXXX  ",
" XXXXXooXXoOOOO++##@OooOOOoooooXX  ... XX  XXXXXooXXoooOXXooooXX",
"oooXoOOooOOoOo+@##@@oOOooooOoooXoXX   .  XXXXoooXXooOOOooXXoXooX",
"ooXoOooXXXXXXXo+@@++ooooooooOOooXooX    XXooXXOoXoOOOOOOOOoXoooo",
"oXXX    ....  XX+++.XXooXooOOOOOooXXXXXXoOOooOOOOOoooOO++OooooXX",
"XX        ...   .+.. XXXoooO++++OOooXXXoooOOOOOooooOOO++++OoXXoX",
"    XXX  ...     .  X XXXXO++@@++OoOooOOOOooXXooooOO++@@@++ooooo",
"XX XX  XX ..  X    XXXXXXO+@++@@+OooOOOOoXXXXoXXoo+++@@##@+Ooooo",
"oXXXXXXX   .   XXXooXXXXO+++@@@@@+oXXXX X  ....oO+++@###@@@+XXoo",
"ooXXoXX    .    XXXoooXXO+@@#@#@@+OX   X ......O+@+@@@#@#@#@X Xo",
"ooooXXXXX  . XXXXXXXXXoO+++@@####@+  ..     ...O++@@####@##@ XXX",
"oooOoXXX   .XXXXXXXXXooO+@++@@##@@@+ .      .. .+@##@#####@ XXXX",
"oOOOOOo  X  XXXXXXoooOO+@+@@$##@##@++        .   +@######@XXooXo",
"OOOoooOOooX oXXXooooOO+@@##$####$#@@+        .   +@@###@+.oooOoX",
"oXooXoooXoooXXooooOO++@@@@####$#$##@@+   X   .    +#@@++.XXoooOO",
"ooXXXXoXXXXXXXXXXO++@@@#@#$$#$$$##@+@+   XX  .    .+@+..XXXXXXXo",
"....    XXX XXXXX++++@###$$$$$$##@#@++ X XX   X   X...XXXX XXXXX",
"  ....     XXXXXo++@@#####$#$#$$$#@@+.  XXXX   X   XXXXXX   XXX ",
"X  ..... XXXX  oo+@+#@@##$###$$$##@+. XXXXXXX XXX XXXooXoo X X  ",
" X ..   XXX   XXX++@@@#@$$#$##$###@+.  XXoXXX XXXXXXXXooXXXXX  X",
"X  .       XXXXXX.++@@@##$$####$#+@.XXXXXXooXXXoXoooooOOoXXXXXXX",
"   .        XXXXX .+@+@@##$$####@@+.oooXoOOoooXXoOooOOOoooooXXXX",
"X  .     XXX  XXXoo.+@+@@$####@@++.ooXXooooOOOooooOOOoooooXXoXXX",
"X  . X    oXXXXXXXoo.+@#####@@+++.XXXXXXXXooOOOOoooOOOoOoooXXXXX",
"XX .  XXXXXoooXoooooO.@@##@@@+... X XXXXXXXXooOoOOOOooO@@+  X XX",
"XXX. XXXXXXXOOoXooOOO.+@#@#@+...    X  XXXXXXXoOooOOOo+##@+  XXX",
"XXX XXoooOOOOooooOOoo..+@#@+......    XX XXXXoooooooO+@@##  X XX",
"XXooXXXXoooOOOoooooooo.+@@++...       X   XXXXXooooOoo+#++X  XXX",
"XXXXooXXXoOO++OOooooOOO.+@+...     XXX X    XXoXooooooo++.XXXXXX",
"XXXooXoXoO++@@++OooOOOoO.++ ..    X  XXXX  XXXXoooooooo..oXooXXX",
"XoooooooO++@@#@++OOoooXo.+. .       XXXX  XXXooooOoOooOOooooXXXX",
"XXoooooo++@+#@#@@+oXXXXXX.XX.    XXXXX  XXXXooOOooOOOOoooOooooXX",
"ooXXooo+@@##@####@XXX   XXXX.  XXXXXXXXXXXXXXXoOOOoOOooOOooooooO",
"Oooooo+@@#######@.XX  XXXXXX.   XXooXXXXXXooXXXoOoooOOOOoOooOOOo",
"oOoooo.++@@@###@.XX XXXXXXXX . XXooXXXXoooXXXooXooOOOOOOOOOOOooo",
"ooooooo.++@##@..XXoXXXXoXXoXX XXoXXXXXoXooOOOOOOoOOOOOOOOOooooXX",
"XXXooXoo......ooooXXXooXooXXXXXooooXooooOO+++++OOOoOOoOoXXX    X",
"    XoooXX..XoOooXXXXXXooXXoooXXooooooOO++++++@+++OOXXoX ...  . ",
"  XX .. X   XXoOOoooXXXXXXoooXoooOoOOOO++++@@@@@@@++OOXXX ....  ",
"      ..   XXXXoOOOoooXX XXXooooOOOoOO++@+@@@@##@##@@+O    ..   ",
"    ..    X XXoooXX ..  X   .XXXXooXO++@+@@####@#$###@@++  .    ",
"       X XXXXXooXX    ..  ....   XXXO++@@@######$##$$#@@++ .    ",
"     XXXXXooXXoooXX  . ...    .   XXX+@@##@##$#$$$$$#$##@@+.    ",
" XX   XXoooXooOOOOoX  ...   Xoo   X X+@##@##$###$$#####@@+..    ",
"  XXXX XXooooOO+++OOX ..   XOO++   X o+@@#####$$$#$##@@@..X     ",
"  XX XXXoOOO+++@@+++O  .   O+++@    XXX+@@###$#$####@@.XXX   X  ",
" X  XXXoOO++@@@##@@++  .   +@@@.   XXXXo+@@###$###@@..XXX  XX   ",
"XXX  XXX++@++@@@##@@++ .    +@.  X  XXoo++@@#####@..oXXo XXX    ",
"ooXoXoo++@+@@@#$@###@++     ..    XXXXXXo+@@@#@@..oooooXoXXXoXoo",
"OooXoO++@@@#@#$$#$###@+    XX XX   XXoooo+@@#@@.oOOOooOoooXXXooO",
"oOOoooO++@###$#$$$$$##@+     XXXoXXXoXooO.+@@@.ooooOOOOOOOOoooOO",
"XXXXXoooO+@@##$##$$###@XXX  XXooXXooOoOooo.+@..oooOoooOOOOooOOoo",
"       XX ..@###$##@#@oOOoOOOooooOOOOOoX  ....XXoooooOOO++ooXX  ",
".  ...   XX..@###@@#@.oooOOOOOOooooOoX  ...   XXXXooooo++@++X ..",
"... .       ..@@##@@.ooXXoooOOoOooXo. ..   XXX  XXXXoo+@@+@+   .",
" ...    X     .@@@..XXXoXXoOoOoooXXX ..   X  XXXXXXoooo+@@@   . ",
"  .      XX  XXX..  XXXXXooOOoOoXoX   .       XXXXoXoOXX+@.     ",
"   .      XX  XXXX XXXXXXXXoOoOooX X   .     XX  XX XOoX..   X  ",
"  ..        XXXXX XXXXoXoXoooOOooXX    .        XX X oOoX  X  XX",
"   ..      XXXXXXXXXXoOoooXooOooXX     .       XX   oooXX X  XX "
};
