/* XPM */
static char *result[] = {
/* columns rows colors chars-per-pixel */
"64 64 13 1 ",
"  c #646464",
". c #797979",
"X c #515151",
"o c #3D3D43",
"O c #2F2F37",
"+ c #1855BD",
"@ c #1044AC",
"# c #16448D",
"$ c #446FDC",
"% c #6995F4",
"& c #1034BD",
"* c #20598B",
"= c #10349C",
/* pixels */
"  ...   XX    XXXXXooooOOoOOooooX          XX   XX XXoooXXXX X  ",
" ..     X   XXXXXXXXoooooOOooooX            XX X  XXXXoooXXXX   ",
".  . XXX  XXXoXXXXooXoXXooooooXX         XXX XX  XXoXoooXXX     ",
"..    XXXXXXXXoooXXooXXooooOoXoXX XX  ..  XXXXXXXXXXoOOooo XXXX ",
". XXXXXXXXXXXooOoooOOoOOoOOoooooXX  ... XXX XXXXXXXoooOOoXXXXX  ",
" XXXXXooXXoOOOOooOO+@#@OOOoooooXX  ... XX  XXXXXooXXoOoOXXooooXX",
"oooXoOOooOOoOoOO+$$++@##oooOoooXoXX   .  XXXXoooXXOO++@@oXXoXooX",
"ooXoOooXXXoooO@+$$%$+$+@#oooOOooXoooOO  XXooXXOoXoO+@@+@@ooXoooo",
"oXXX     ooo@@+$+%$%$%$++@oOOOOooO+@@@OooOOooOOOOO+$+@@+@@ooooXX",
"XX      o&&@++$+$$%%%$%$++oooOOOO@$++@@oooOOOOOoO$%%%$+$+@ooXXoX",
"    XXX &&@+@++$%$$%$$+$@@XoooOO@++$%++@OOooXXoo$+$%$%$$@ooooooo",
"XX XX  X&&&@&&@++$+$++@+@#oXXoO$+%%%$$+$oXXXXoX++@$+@+$+OOOOoooo",
"oXXXXXXX &&&&...++++@@+@#XoooO$+%$%%%$$+X  ...+@@++@#@+OoooXXXoo",
"ooXXoXX    ...  X.+@@###Xoooo@+$$+$+$++. .....@@+@@#@+.XOoX X Xo",
"ooooXXXXX  . XXXXX..#@.XoooO#@@++@++@+.     ...#@@@+..  X    XXX",
"oooOoXXX   .XXXXXXX...ooooOO##@+@@@@..      .. .#@...  XXX  XXXX",
"oOOOOOo  X  XXXXXXoooooOOOoo ##@#@...        .   .    XXooXXooXo",
"OOOoooOOooX oXXXoooooOOoOOOo  ##..  .        .          XXoooOoX",
"oXooXoooXoooXXoooXXooooOooooO  ..  .     X   .     XX  XXXXoooOO",
"ooXXXXoXXXXXXXXXXXXXOOoOOOooOOX X       XXX  .      XX  XXXXXXXo",
"....    XXX XXXXXXooOO@@+@@OoOoXXXX    XoOO&&&X   XX  XXXX XXXXX",
"  ....     XXXXXooXO@+@++$+@@oOXXX    XoO*&**&&X   XXXXXX   XXX ",
"X  ..... XXXX  ooO+@@@+$%$$+@@ooX X  XXO*&**+$*&X XXXooXoo X X  ",
" X ..   XXX   XX@+%$@%$+$%+$+@@oXXXX Xo+$*+%$%%*XXXXXXooXXXXX  X",
"X  .       XXXX@++$+$$%$++$%%$@XoX  XX&*+$$$%%$$XoooooOOoXXXXXXX",
"   .     OO XXX+@++@+++$@@@+$++@XXXXoo&&**$%+$$+oOooOOOoooooXXXX",
"X  .    &@@+   &@#@#@#+@&@+@+$+#XooooXX&&**+$$* ooOOOoooooXXoXXX",
"X  . XO@@@+@+XX &@#@#@&&@@@#++#@ooXXXXX  &&*+* OoooOOOoooooXXXXX",
"XX . O@+@$$+$+XX  &@@&&@..&@#@&   X XXXXX    oOoOOOOooOooX  X XX",
"XXX. &+$++$$+$oXX   &&    ..&@..    X  XXXXXXXoOooOOOooOo    XXX",
"XXX &@$+$+%%$+oooXXX   X   .......    XX XXXXoooooooOOooXX  X XX",
"XXoo@++$%$%$+@ooooooXXXXXX  ...       X  O##XXXooooOooooXoX  XXX",
"XXXX++@+$%+$+ ooooooOOOoXXX .##O   OOO#@@#@##XoXoooooooooXXXXXXX",
"XXXo+@@++$$+@XOOoooOOOoOoXX ##@#@@OO##@+@@#@##XooooooooOOoXooXXX",
"Xoooo @@$+++ OoooOOoooXoXXX#@+@@#+@##@+@+@@+@+#ooOoOooOOooooXXXX",
"XXoooo  @++ XOOooooXXXXXXXX@#@++@@+@++$+@$+$+$+OooOOOOoooOOOooXX",
"ooXXooooX  XOooooXXXX   XXXX@+@@+$$++$+@$+$+$%$OOOoOOooO@@*OoooO",
"OooooooOOooOOOooXoXX  XXXXXX#@+$$%+$$+$+$$+$%$XoOoooOOO@@*@@OOOo",
"oOooooOooooooOOooXX XXXXXXXX #@$++%%%$$%$++$$+oXooOOOO@@***@@ooo",
"oooooooooooooooO@=oXXXXoXXoXX##+$+$%$+$$%$%%$oXooOOOOO**@+**@oXX",
"XXXooXooooXXOO@==+##XooXooXXX @#+$%$+$%%$%%$ oooOOoOO*@+*$$@*  X",
"    XoooOOO=##==@##@=XXooXXooo +$+$%$%$%%$  oooOooOO@+*$+$+*  . ",
"  XX ..=#@=@+###++@=@XXXXXoooXo +$  %$%%   oOoooooo@+$++%+$+..  ",
"      @#=+#+#=@+=@===oXX XXXoooo   o    ooooooOoooO*+++$$%$*.   ",
"    ..====##+@==#+==..  X   .XXXXooXooOOooooOOoOXX*@+$$+%$+.    ",
"       =@@#=@==#@=.   ..  ....   XXXXoooOXoooOOooX**$%$$$+*.    ",
"     XX =@+#@===..   . ...    .   XXXXO+#+XoooOoo*+$+$%$+*@.    ",
" XX   XX  =@==...     ...         X XO+++###oOooO@*@$+$++@ .    ",
"  XXXX XXoX   oX      O.           O+#$+$++##oOO@@**+&++@XX     ",
"  XX XXXoOoXoooXX X OO===        OO#+$%%+###&ooO&&@+*@&&&X   X  ",
" X  XXXoOoooooooXX O#==##=      OO#+$%%+#&#&ooOoX&&@@&&&X  XX   ",
"XXX  XXXooooooOooo##=##$+##    O#++$%$+#&&&XooooXX&&&@&o XXX    ",
"ooXoXoooooOooOOOo+$##+$+#+#  X+++%$#+##&&&XoooooOXXX@&oXoXXXoXoo",
"OooXoOOooooOOOOoo#+$+$%$+$++X #+#+&&#+&#XOOooooooOOOXoOoooXXXooO",
"oOOoooOOoOooooOO+##+#+$%$%$+ X #&&#&&# XOOOOoooooooOOOOOOOOoooOO",
"XXXXXoooOoooOOoO####+$%$+$+#XXo #&&  XOoooOoOOooooOoooOOOoooOOoo",
"       XX XXoXX  #++%$++#+#OOooooX  XOoX  .. XXXoooooOOOoOooXX  ",
".  ...   XX XX  X ##++#$+##OOOOooooOoX  ...   XXXXoooooOOoX X ..",
"... .            X ###+### oOOoOooXo. ..   XXX  XXXXoooX X X   .",
" ...    X     X   XX#+##  oOoOoooXXX ..   X  XXXXXXoooooX     . ",
"  .      XX  XXXX   X    ooOOoOoXoX   .       XXXXoXoOXX        ",
"   .      XX  XXXX XXXXXXXXoOoOooX X   .     XX  XX XOoXX    X  ",
"  ..        XXXXX XXXXoXoXoooOOooXX    .        XX X oOoX  X  XX",
"   ..      XXXXXXXXXXoOoooXooOooXX     .       XX   oooXX X  XX "
};
