/* XPM */
static char *result[] = {
/* columns rows colors chars-per-pixel */
"64 64 12 1 ",
"  c #646464",
". c #797979",
"X c #515151",
"o c #3D3D43",
"O c #2F2F37",
"+ c #375B3E",
"@ c #1C9829",
"# c #17C544",
"$ c #41F384",
"% c #17DD62",
"& c #D9FFEB",
"* c #007B18",
/* pixels */
"  ...   XX    XXXXXooooOOoOOooooX          XX   XX XXoooXXXX X  ",
" ..     X   XXXXXXXXoooooOOooooX            XX X  XXXXoooXXXX   ",
".  . XXX  XXXoXXXXooXoXXooooooXX         XXX XX  XXoXoooXXX     ",
"..    XXXXXXXXoooXXooXXooooOoXoXX XX  ..  XXXXXXXXXXoOOooo XXXX ",
". XXXXXXXXXXXooOooooooOOoOOoooooXX  ... XXX XXXXXXXoooOOoXXXXX  ",
" XXXXXooXXoOOOOoooooOooOOOoooooXX  ... XX  XXXXXooXXoooOXXooooXX",
"oooXoOOooOOoOoOOOooooOOooooOoooXoXX   .  XXXXoooXXooOOOooXXoXooX",
"ooXoOooXXXXXXXoOOOooooooooooOOooXooX    XXooXXOoXoOOOOOOoooXoooo",
"oXXX    .+++@@XX XXXXXooXooOOOOoooXXXXXXoOO#oOOOOOoooOooOOooooXX",
"XX      ++$$#@@   X  XXXooooooOOOOooXXXoo+#%##OoooooOoooooooXXoX",
"    XXX +$&&%#@*    X XXXXXooooOoooOooOO+%$%%@@oooOOOOOOOooooooo",
"XX XX  +$&&%#@*@   XXXXXXooXXoooOOooOOOO+$&$%#@@oooooOOOOOOOoooo",
"oXXXXXXX#%@****@XXooXXXXXXooooOOOooXXXX ##%&#@*@ XX XXoOoooXXXoo",
"ooXXoXX  ##@**@ XXXoooXXooooooooXXXX   X.@*#**@.     XXXOoX X Xo",
"ooooXXXXX @##@.XXXXXXXoooooOOoXooX   ..  .@**@.         X    XXX",
"oooOoXXX  .@..XXXXXXXoooooOOoXoXX    .   ..@@. .       XXX  XXXX",
"oOOOOOo  X ..XXXXXoooooOOOooooXX X  .     ....        XXooXXooXo",
"OOOoooOOooX oXXXoooooOOoOOOoooXX  X .        .          XXoooOoX",
"oXooXoooXoooXXoooXXooooOooooOooXX  .     X   .     XX  XXXXoooOO",
"ooXXXXoXXXXXXXXXXXXXOOo++++oOOXXX        XX  .      XX  XXXXXXXo",
"....    XXX XXXXXXooo+##@@**oOoXXX     X XX   X   XX  XXXX XXXXX",
"  ....     XXXXXooXo##$##@@@*@OXXX      XXXX   X   XXXXXX   XXX ",
"X  ..... XXXX  ooXX##$$$$#@#@*@+X X   XXXXXXX XXX XXXooXoo X X  ",
" X ..   XXX   XXX+#$$$$$$$#$#**@+XXX   XXoXXX XXXXXXXXooXXXXX  X",
"X  .       XXXXXX#$$$$&&$$$#@@*@+X  XXXXXXooXXXoXoooooOOoXXXXXXX",
"   .        XXXX+$#$&&$&&$$@@***++XXoooXoOOoooXXoOooOOOoooooXXXX",
"X  .     XXX  XX##$$$&&&$$##@**@++oooXXooooOOOooooOOOoooooXXoXXX",
"X  . X    oXXXX+#$$$&&&$$##@***#+oXXXXXXXXooOOOOoooOOOoooooXXXXX",
"XX .  XXXXXoooX+#$&&$&$$#$@@@*##+ X XXXXXXXXooOoOOOOoo+##X  X XX",
"XXX. XXXXXXXOOo+@#$$$$##@@@**@#+    X  XXXXXXXoOooOO++$&##   XXX",
"XXX XXoooOOOOoo+#@##$##@@***@#....    XX XXXXoooooo++$&&&%# X XX",
"XXooXXXXoooOooo+#@@##@@****@...       X   XXXXXoooo+#&$&%#@  XXX",
"XXXXooX#++oXoOooo@@@@***@#....     XXX X    XXoXoooo+*#%***@XXXX",
"XXXooX&$##+oooOOo#@**@*##.. ..    X  XXXX  XXXXoooooo@****@ooXXX",
"Xoooo&&&%#@oOOooo.##@@##.XX .       XXXX  XXXooooOoOoo@*@@ooXXXX",
"XXoo$$&%##@*OOOooo.###..XXXX.    XXXXX  XXXXooOOooOOOOo@*XooooXX",
"ooXXo#%#@**@OooooXX...  XXXX.  XXXXXXXXXXXXXXXoOOOoOOooXXooooooO",
"Ooooo@****@OOOooXoXX  XXXXXX.   XXooXXXXXXooXXXoOoooOOOOoOooOOOo",
"oOoooo@**@oooOOooXX XXXXXXXX . XXooXXXXoooXXXooXooOOOOOOOOOOOooo",
"ooooooo@@.oooooOXXoXXXXoXXoXX XXoXXXXXoXoooXooXooOOOOOOOOOooooXX",
"XXXooXo..oXXooooooXXXooXooXXXXXooooXooo+++ooooooOOoOOoOoXXX    X",
"    XoooXXoXXoOooXXXXXXooXXoooXXoooooo+###@#oooOooOoXXoX ...  . ",
"  XX .. X   XXoOOoooXXXXXXoooXoooOoO+#$#$##@@+ooooooooXXX ....  ",
"      ..   XXXXoOOOoooXX XXXooooOOO+###$$$$$@@+++ooXoX     ..   ",
"    ..    X XXoooXX ..  X   .XXXXoo##$$&$$$#@**@++ooXXX    .    ",
"       X XXXXXooXX    ..  ....   X$#$#&&&&$$#@**@@+XXX XX  .    ",
"     XXXXXooXXoX     . ...    .  $#$$$$&&$$$$##**@@oXXXX   .    ",
" XX   XXoooXXXoX      ...       $$###$&$##$###@@@**@XXXXX  .    ",
"  XXXX XXoXoXooX      ..        $##@@#$$$###@@****@@oXXXXXX     ",
"  XX XXXoOoXoooXX X    .         $@*@@#####@#@@**@#OooXXXX   X  ",
" X  XXXoOoooooooXX     .          ##**@@#@@#@**@@#XoXXXXX  XX   ",
"XXX  XXXooooooOoooXX++ .         X+##***@*****@@XXoXoXXo XXX    ",
"ooXoXoooooOooOOOoXo##++     XX    X++##@*@@*#@XXOOoooooXoXXXoXoo",
"OooXoOOooooOOOOooo&%##+    XX XX   X++###@##@XXooOOOooOoooXXXooO",
"oOOoooOOoOooooOOO&&&%%#+     XXXoXXXoX..@##@XXoooooOOOOOOOOoooOO",
"XXXXXoooOoooOOoOO$&%&#@*XX  XXooXXooOoO..@@.ooooooOoooOOOoooOOoo",
"       XX XXoXX #@%%#@*@OoOOOooooOOOOOoX ... XXXoooooOOOoOooXX  ",
".  ...   XX XX  X#*@**@ooOOOOOOooooOoX  ...   XXXXoooooOOoX X ..",
"... .            X@**@.XXoooOOoOooXo. ..   XXX  XXXXoooX X X   .",
" ...    X     X   X@..XoXXoOoOoooXXX ..   X  XXXXXXoooooX     . ",
"  .      XX  XXXX  ..XXXXooOOoOoXoX   .       XXXXoXoOXX        ",
"   .      XX  XXXX XXXXXXXXoOoOooX X   .     XX  XX XOoXX    X  ",
"  ..        XXXXX XXXXoXoXoooOOooXX    .        XX X oOoX  X  XX",
"   ..      XXXXXXXXXXoOoooXooOooXX     .       XX   oooXX X  XX "
};
