/* XPM */
static char *result[] = {
/* columns rows colors chars-per-pixel */
"64 64 14 1 ",
"  c #646464",
". c #797979",
"X c #515151",
"o c #3D3D43",
"O c #2F2F37",
"+ c #4D3737",
"@ c #3B2C2C",
"# c #960606",
"$ c #CA0707",
"% c red",
"& c #970303",
"* c #FD5E5E",
"= c #845959",
"- c #FF8989",
/* pixels */
"  ...   XX    XXXXXooooOOoOOooooX          XX   XX XXoooXXXX X  ",
" ..     X   XXXXXXXXoooooOOooooX            XX X  XXXXoooXXXX   ",
".  . XXX  XXXoXXXXooXoXXooooooXX         XXX XX  XXoXoooXXX     ",
"..    XXXXXXXXoooXXooXXooooOoXoXX XX  ..  XXXXXXXXXXoOOooo XXXX ",
". XXXXXXXXXXXooOooooooOOoOOoooooXX  ... XXX XXXXXXXoooOOoXXXXX  ",
" XXXXXooXXoOOOOoooooOooOOOoooooXX  ... XX  XXXXXooXXoooOXXooooXX",
"oooXoOOooOOoOoOOOooooOOooooOoooXoXX   .  XXXXoooXXooOOOooXXoXooX",
"ooXoOooXXXXXXXoOOOooooooooooOOooXooX    XXooXXOoXoOOOOOOoooXoooo",
"oXXX    ....  XX XXXXXooXooOOOOoooXXXXXXoOOooOOOOOoooOooOOooooXX",
"XX        ...     X  XXXooooooOOOOooXXXoooOOOOOoooooOoooooooXXoX",
"    XXX  ...        X XXXXX++ooOoooOooOOOOooXXooooOOOOOOOooooooo",
"XX XX  XX ..  X    XXX++++@@@+ooOOooOOOOoXXXXoXXoooooOOOOOOOoooo",
"oXXXXXXX   .   XXXooX++@@@@@+@++OooXXXX X  ....  XX XXoOoooXXXoo",
"ooXXoXX    .    XXXo+@#######@@++XXX   X .......     XXXOoX X Xo",
"ooooXXXXX  . XXXXX+@##$$##$#$###@+   ..     ...         X    XXX",
"oooOoXXX   .XX++@@###$$##$$$#$####@++.      .. .       XXX  XXXX",
"oOOOOOo  X  #####$$%%$#$$%$$$%%$$$&&&&&&     .        XXooXXooXo",
"OOOoooOOooX o###$$%$%%$$%$$%%*%*$$$&&$&      .      +   XXoooOoX",
"oXooXoooXoooXX$###$#$%%*%%*%***%%$&&$=   X   .    +@@++XXXXoooOO",
"ooXXXXoXXXXXXX=$$##$$$%%**-**-***%$==    XX  .   +%%%$$@+XXXXXXo",
"....    XXX XXXX$$$$$%%****--*-*=X     X XX   X ##$%$$%$$$ XXXXX",
"  ....     XXXXX==$%%$**--**--*XXX      XXXX   X ##$%%%%$   XXX ",
"X  ..... XXXX  ooXX=%*%--*--**=XX X   XXXXXXX XXX=$$$$==oo X X  ",
" X ..   XXX   XXXXXXX==*---*==XoXXXX   XXoXXX XXXXX===ooXXXXX  X",
"X  .       XXXXXXX XoX=====XXoXXoX  XXXXXXooXXXoXoooooOOoXXXXXXX",
"   .        XXXXX XXXoXXXooooXXXXXXXoooXoOOoooXXoOooOOOoooooXXXX",
"X  .     XXX  XXXooXooOOOooXooooXooooXXooooOOOooooOOOoooooXXoXXX",
"X  . X    oXXXXXXXoooOOoooXXXXooooXXXXXXXXooOOOOoooOOOoooooXXXXX",
"XX .  XXXXXoooXoooooOooooX X      X XXXXXXXX+@@+OOOOooOooX  X XX",
"XXX. XX+@+XXOOoXooOOOOoo  .   ..    X  XXX@+@@@@++OOOooOo    XXX",
"XXX ++@@+++OOooooOOoooooX  .......    XX+++@###@@++++OooXX  X XX",
"XX+@+@@@@@@++oooooooooooXo  ...       ++@###########@@++XoX  XXX",
"XX########$$@@+oooooOOOooXX ..     X######$###$%$$$##$%$$$%$XXXX",
"XX=##$$$$$$%%$$OoooOOOoOoXX ..    X  ##$$$$$#$#$%%$$$%$%$$$XXXXX",
"XoX=$#$%$%****$#oOOoooXoXXX .       X=##$%%$$$%%%$%%**%*%%XXXXXX",
"XXoX$$%$%***%%#=oooXXXXXXXXX.    XXXXX==%$%%$$$*%%%*%**-*=XXooXX",
"ooXX=$$%*%*%==XooXXXX   XXXX.  XXXXXXXXXX=%$%%*-***%*--*=XoooooO",
"OoooX#$%%$%==XooXoXX  XXXXXX.   XXooXXXXXXX%****--**--==XOooOOOo",
"oOooX=#$$%=XoOOooXX XXXXXXXX . XXooXXXXoooX=%-*--*--=XXOOOOOOooo",
"ooooo==#$=oooooOXXoXXXXoXXoXX XXoXXXXXoXoooXX=--*-==XXOOOOooooXX",
"XXXooX===oXXooooooXXXooXooXXXXXooooXooooOoooXX====XOOoOoXXX    X",
"    XoooXXoXXoOooXXXXXXooXXoooXXoooooooooOOOooXXooOoXXoX ...  . ",
"  XX .. X   XXoOOoooXXXXXXoooXoooOoOOooOOOooOoooooooooXXX ....  ",
"      ..   XXXXoOOOoooXX XXXooooOOOoOOOoooooooOooooXoX     ..   ",
"    ..    X XXoooXX ..  X   .XXXXooXooOOooooOOoOXXooXXX    .    ",
"       X XXXXXooXX    ..++....   XXXXoooOXoooOOooXXXXX XX  .    ",
"     XXXXXooXXoX     ++@@+@@  .   XXXXXoooXoooOoo++oXXXX   .    ",
" XX   XXoooXXXoX   +@@@@@@++++    X XXoOOoXXoOo+@@++XXXXX  .    ",
"  XXXX XXoXoXooX ##$$$%%%%$$$$##   X oXoOOoXo####$#@oXXXXXX     ",
"  XX XXXoOoXooo##$$$%%%$%$%$$##     XXXXoOXoo=##%$$%ooXXXX   X  ",
" X  XXXoOoooo##$$%%$$%$$$%$%$#     XXXXooOoOoX=#$%%oXXXXX  XX   ",
"XXX  XXXoooooo##$$$%%*%%$$%%#    X  XXooOooOooXX%%=XoXXo XXX    ",
"ooXoXoooooOOoooX#$%%***-*%%$XX    XXXXXXooOooooX==XXoooXoXXXoXoo",
"OooXoOOooooOOOoX=$*----*-*=XX XX   XXooooOOoooooXXXOooOoooXXXooO",
"oOOoooOOoOooooOOX=%**---==   XXXoXXXoXooOOOOoooooooOOOOOOOOoooOO",
"XXXXXoooOoooOOoOOXX=-*==XX  XXooXXooOoOoooOoOOooooOoooOOOoooOOoo",
"       XX XXoXX  XXX===XXoOOOooooOOOOOoX  .. XXXoooooOOOoOooXX  ",
".  ...   XX XX  X XXXXXooOOOOOOooooOoX  ...   XXXXoooooOOoX X ..",
"... .            XooXooXXoooOOoOooXo. ..   XXX  XXXXoooX X X   .",
" ...    X     X   XXXXXoXXoOoOoooXXX ..   X  XXXXXXoooooX     . ",
"  .      XX  XXXX   XXXXXooOOoOoXoX   .       XXXXoXoOXX        ",
"   .      XX  XXXX XXXXXXXXoOoOooX X   .     XX  XX XOoXX    X  ",
"  ..        XXXXX XXXXoXoXoooOOooXX    .        XX X oOoX  X  XX",
"   ..      XXXXXXXXXXoOoooXooOooXX     .       XX   oooXX X  XX "
};
